<svg width="175" height="48" viewBox="0 0 175 48" fill="none" xmlns="http://www.w3.org/2000/svg">
<path d="M17.48 16.34H10.96V17.14H13.56V17.94H17V18.54H13.12V18.74H13.6V19.54H12.6V19.74H12.52V19.94H11.52V20.74H13.4V20.94H13.48V21.14H13.04V21.74H12.76V21.94H14.08V22.74H10.88V23.54H12.04V24.14H12.68V24.94H12.76V25.74H12.44V26.74H12.8V27.14H12.56V27.74H12.52V27.94H12.2V28.74H12.56V29.14H12.52V31.54H12.56V32.34H13.24V33.14H12.68V33.54H12.52V33.94H13V34.74H12.32V34.94H13.32V35.34H13.68V35.54H13.36V36.14H13.2V36.42C13.2 36.4733 13.1867 36.5267 13.16 36.58C13.16 36.6333 13.1467 36.6867 13.12 36.74H12.12C12.0933 36.8733 12.0133 37.0067 11.88 37.14H13C12.8933 37.2467 12.8133 37.3133 12.76 37.34H10.48C10.3467 37.4467 10.16 37.5 9.92 37.5H1.76C1.52 37.5 1.33333 37.4467 1.2 37.34H3.48C3.37333 37.3133 3.29333 37.2467 3.24 37.14H2.12C1.98667 37.0067 1.90667 36.8733 1.88 36.74H2.92C2.89333 36.66 2.88 36.5533 2.88 36.42V36.14H3.04V35.54H3.36V35.34H3V34.94H2V34.74H2.68V33.94H2.2V33.54H2.36V33.14H2.92V32.34H2.24V31.54H2.2V29.14H2.24V28.74H1.88V27.94H2.2V27.74H2.24V27.14H2.48V26.74H2.12V25.74H2.44V24.94H2.36V24.14H1.72V23.54H0.56V22.74H3.76V21.94H2.44V21.74H2.72V21.14H3.16V20.94H3.08V20.74H1.2V19.94H2.2V19.74H2.28V19.54H3.28V18.74H2.8V18.54H6.68V17.94H3.24V17.14H0.64V16.34H7.16V16.14H3.08V15.54H3.04V14.94H2.32V14.74H4.76V14.34H2.92V13.54H3.08V12.94H1.96V12.14H2.16V11.74H2.04V11.34H2.36V11.14H2V10.58C2 10.4467 2.02667 10.3 2.08 10.14H2.28C2.46667 9.71333 2.8 9.5 3.28 9.5H11.44C11.92 9.5 12.2533 9.71333 12.44 10.14H12.24C12.2933 10.3 12.32 10.4467 12.32 10.58V11.14H12.68V11.34H12.36V11.74H12.48V12.14H12.28V12.94H13.4V13.54H13.24V14.34H15.08V14.74H12.64V14.94H13.36V15.54H13.4V16.14H17.48V16.34ZM43.3266 13.14H35.8866V13.94H38.7266V14.54H41.8066V15.14H41.7266V15.74H42.8866V16.54H38.5266V16.74H37.6866V17.02C37.6866 17.2067 37.6466 17.38 37.5666 17.54H40.4066C40.2199 17.9133 39.9132 18.1 39.4866 18.1H32.8466V18.14H33.2466V18.94H33.3266V19.74H33.1266V20.54H32.6066V21.14H34.6066V21.54H32.9266V22.14H32.0466V22.94H33.5666V23.34H33.2866V24.14H33.0066V24.94H32.5266V25.74H32.0866V26.34H33.5666V26.94H32.9666V27.74H33.2066V27.94H33.4866V28.34H35.4866V28.94H34.1266V29.74H34.7266V30.54H33.0466V31.34H33.7266V31.74H34.0066V32.34H34.6466V33.14H34.4066V33.74H33.3666V34.34H33.2466V34.74H33.2066V35.34H33.6466V35.94H33.2866V36.42C33.2866 36.5533 33.2732 36.66 33.2466 36.74H32.8466C32.7666 37.0067 32.6199 37.2067 32.4066 37.34H32.4866C32.3532 37.4467 32.1666 37.5 31.9266 37.5H23.9266C23.7132 37.5 23.5132 37.4467 23.3266 37.34H23.2466C23.0599 37.2067 22.9132 37.0067 22.8066 36.74H23.1666C23.1399 36.66 23.1266 36.5533 23.1266 36.42V35.94H23.4866V35.34H23.0466V34.74H23.0866V34.34H23.2066V33.74H24.2466V33.14H24.4866V32.34H23.8466V31.74H23.5666V31.34H22.8866V30.54H24.5666V29.74H23.9666V28.94H25.3266V28.34H23.3266V27.94H23.0466V27.74H22.8066V26.94H23.4066V26.34H21.9266V25.74H22.3666V24.94H22.8466V24.14H23.1266V23.34H23.4066V22.94H21.8866V22.14H22.7666V21.54H24.4466V21.14H22.4466V20.54H22.9666V19.74H23.1666V18.94H23.0866V18.14H22.6866V18.1H16.0466C15.6466 18.1 15.3266 17.9133 15.0866 17.54H12.2466C12.2199 17.46 12.1932 17.38 12.1666 17.3C12.1132 17.22 12.0866 17.1267 12.0866 17.02V16.74H12.9266V16.54H17.2866V15.74H16.1266V15.14H16.2066V14.54H13.1266V13.94H10.2866V13.14H17.7266V12.54H13.5666V11.74H14.3666V10.94H15.4066V10.74H16.0066V10.58C16.0066 10.3133 16.0866 10.1 16.2466 9.94H15.3666C15.5799 9.64667 15.8732 9.5 16.2466 9.5H39.6866C40.0599 9.5 40.3532 9.64667 40.5666 9.94H41.4066C41.5399 10.1267 41.6066 10.34 41.6066 10.58V10.74H41.0066V10.94H39.9666V11.74H39.1666V12.54H43.3266V13.14ZM68.5597 33.54H66.9197L66.5597 33.94H72.6797C72.653 33.9667 72.6264 33.9933 72.5997 34.02C72.573 34.0467 72.533 34.0867 72.4797 34.14H63.0397C62.9064 34.2733 62.7597 34.4067 62.5997 34.54C62.4664 34.6733 62.3197 34.8067 62.1597 34.94H65.0797L64.5597 35.34H69.9997L69.6797 35.54H67.3197C67.293 35.5667 67.2397 35.5933 67.1597 35.62C67.1064 35.6467 67.053 35.6867 66.9997 35.74H64.3197L63.1997 36.34H64.7597C64.413 36.5 64.0664 36.6467 63.7197 36.78C63.373 36.8867 63.013 37.0067 62.6397 37.14H61.1997C60.293 37.4067 59.3064 37.6067 58.2397 37.74H58.4397C58.013 37.7933 57.573 37.8333 57.1197 37.86C56.6664 37.8867 56.213 37.9 55.7597 37.9C55.253 37.9 54.7464 37.8867 54.2397 37.86C53.7597 37.8333 53.293 37.7933 52.8397 37.74H52.6797C51.533 37.6067 50.5064 37.4067 49.5997 37.14H51.0397C50.6397 37.0067 50.2664 36.8867 49.9197 36.78C49.573 36.6467 49.2264 36.5 48.8797 36.34H47.3197C47.133 36.2333 46.9464 36.14 46.7597 36.06C46.573 35.9533 46.3864 35.8467 46.1997 35.74H48.9197L48.5997 35.54H50.9597C50.933 35.4867 50.893 35.4467 50.8397 35.42C50.7864 35.3933 50.733 35.3667 50.6797 35.34H45.2397C45.133 35.2867 45.0397 35.22 44.9597 35.14C44.8797 35.06 44.7997 34.9933 44.7197 34.94H41.7597C41.6264 34.8067 41.493 34.6733 41.3597 34.54C41.1997 34.4067 41.053 34.2733 40.9197 34.14H50.3597C50.333 34.0867 50.3064 34.0467 50.2797 34.02C50.253 33.9933 50.2264 33.9667 50.1997 33.94H44.0797C43.973 33.8333 43.8664 33.7 43.7597 33.54H45.3997C45.373 33.4867 45.3464 33.4467 45.3197 33.42C45.293 33.3933 45.2664 33.3667 45.2397 33.34H50.2397L49.8797 32.74H47.3997L47.2797 32.54H41.6397C41.613 32.4333 41.573 32.34 41.5197 32.26C41.4664 32.1533 41.413 32.0467 41.3597 31.94H44.0397L43.7997 31.34H42.8397L42.7597 31.14H43.1997C43.173 31.0333 43.1464 30.94 43.1197 30.86C43.093 30.7533 43.0664 30.6467 43.0397 30.54H42.7197C42.7197 30.4333 42.7064 30.34 42.6797 30.26C42.6797 30.1533 42.6664 30.0467 42.6397 29.94H42.3197C42.3197 29.8333 42.3064 29.74 42.2797 29.66C42.2797 29.58 42.2797 29.4867 42.2797 29.38V29.34H42.2397C42.2397 29.2867 42.2397 29.2467 42.2397 29.22C42.2664 29.1933 42.2797 29.1667 42.2797 29.14H43.1997C43.333 28.7133 43.613 28.5 44.0397 28.5H51.6397C52.0664 28.5 52.3864 28.5533 52.5997 28.66C52.813 28.7667 53.053 28.9267 53.3197 29.14H52.3997L52.4397 29.18C52.493 29.2067 52.533 29.2333 52.5597 29.26C52.613 29.2867 52.653 29.3133 52.6797 29.34H52.7197C53.0664 29.6067 53.493 29.8067 53.9997 29.94H54.3597C54.7064 30.0467 55.173 30.1 55.7597 30.1C56.1064 30.1 56.4264 30.0867 56.7197 30.06C57.013 30.0333 57.2664 29.9933 57.4797 29.94H57.3597C57.973 29.8067 58.3597 29.6067 58.5197 29.34H58.4397C58.493 29.2333 58.5197 29.1667 58.5197 29.14H58.9197L58.9597 28.98C58.9597 28.74 58.8664 28.5267 58.6797 28.34H58.3597C58.1197 28.1 57.693 27.9 57.0797 27.74H56.9597C56.7197 27.66 56.4397 27.5933 56.1197 27.54C55.7997 27.46 55.4264 27.3933 54.9997 27.34H54.7597L53.1197 27.1C52.933 27.0733 52.7464 27.0467 52.5597 27.02C52.3997 26.9933 52.2264 26.9667 52.0397 26.94C50.9464 26.7533 49.893 26.4867 48.8797 26.14H48.1597C47.7864 26.0067 47.4397 25.8733 47.1197 25.74H46.5597C46.4264 25.6867 46.293 25.6333 46.1597 25.58C46.0264 25.5 45.893 25.42 45.7597 25.34H42.2797C42.093 25.2333 41.9197 25.14 41.7597 25.06C41.5997 24.9533 41.4397 24.8467 41.2797 24.74H48.7197C48.5864 24.6333 48.453 24.54 48.3197 24.46C48.213 24.3533 48.093 24.2467 47.9597 24.14H39.9997C39.9197 24.0867 39.853 24.02 39.7997 23.94C39.7197 23.86 39.653 23.7933 39.5997 23.74H41.6797C41.4397 23.4733 41.213 23.2067 40.9997 22.94H41.5997L41.3597 22.54H37.5197C37.493 22.4867 37.4664 22.4467 37.4397 22.42C37.413 22.3933 37.3997 22.3667 37.3997 22.34H46.5197C46.4664 22.2333 46.413 22.14 46.3597 22.06C46.3064 21.9533 46.253 21.8467 46.1997 21.74H39.1997L38.9597 21.14H44.5997L44.5197 20.94H42.8397L42.7597 20.74H43.5597C43.5597 20.6867 43.5464 20.6467 43.5197 20.62C43.5197 20.5933 43.5197 20.5667 43.5197 20.54H43.3597L43.2397 20.14H42.9997L42.9597 19.74H42.8797V19.54H41.5997C41.573 19.4867 41.5597 19.42 41.5597 19.34C41.5597 19.26 41.5597 19.1933 41.5597 19.14H40.3997L40.3597 18.74H44.9197C44.893 18.6867 44.8797 18.62 44.8797 18.54C44.8797 18.46 44.8797 18.3933 44.8797 18.34H45.5197V18.3C45.5197 18.1667 45.5197 18.0333 45.5197 17.9C45.5197 17.7667 45.533 17.6467 45.5597 17.54H43.8397C43.8664 17.4333 43.8797 17.34 43.8797 17.26C43.8797 17.1533 43.893 17.0467 43.9197 16.94H46.7197C46.7197 16.8867 46.7197 16.8467 46.7197 16.82C46.7464 16.7933 46.7597 16.7667 46.7597 16.74H43.9197C43.973 16.58 43.9997 16.4467 43.9997 16.34H43.5597L43.6797 15.94H42.9997C43.0797 15.6467 43.173 15.38 43.2797 15.14H43.5997L43.7597 14.74H44.1997L44.5597 14.14H44.1597C44.2397 14.0333 44.3064 13.94 44.3597 13.86C44.4397 13.7533 44.5064 13.6467 44.5597 13.54H44.2397L44.7197 12.94H45.5597C45.5864 12.8867 45.613 12.8467 45.6397 12.82C45.6664 12.7933 45.693 12.7667 45.7197 12.74H44.5997C44.7064 12.6333 44.813 12.54 44.9197 12.46C45.0264 12.3533 45.133 12.2467 45.2397 12.14H45.8797C46.0397 12.0067 46.1997 11.8733 46.3597 11.74C46.5197 11.58 46.693 11.4467 46.8797 11.34H47.5997C47.7597 11.2333 47.9197 11.14 48.0797 11.06C48.2397 10.9533 48.413 10.8467 48.5997 10.74H48.4797C48.533 10.6867 48.5997 10.6467 48.6797 10.62C48.7597 10.5933 48.8264 10.5667 48.8797 10.54H48.3197C48.373 10.4867 48.4397 10.4467 48.5197 10.42C48.5997 10.3933 48.6797 10.3667 48.7597 10.34H48.3597C48.733 10.18 49.1197 10.0333 49.5197 9.9C49.9464 9.76666 50.373 9.64666 50.7997 9.54H51.3997C52.013 9.40666 52.653 9.3 53.3197 9.22C54.013 9.14 54.733 9.1 55.4797 9.1C56.893 9.1 58.2264 9.24666 59.4797 9.54H58.9197C59.773 9.72667 60.5997 9.99333 61.3997 10.34H61.7597C61.8397 10.3667 61.9197 10.3933 61.9997 10.42C62.0797 10.4467 62.1597 10.4867 62.2397 10.54H62.7997C62.853 10.5667 62.9197 10.5933 62.9997 10.62C63.0797 10.6467 63.1464 10.6867 63.1997 10.74H63.3197C63.5064 10.8467 63.6797 10.9533 63.8397 11.06C64.0264 11.14 64.1997 11.2333 64.3597 11.34H63.6797C63.893 11.4467 64.0797 11.58 64.2397 11.74C64.4264 11.8733 64.5997 12.0067 64.7597 12.14H64.1597L64.7997 12.74H65.9197L66.1197 12.94H65.2797C65.3864 13.0467 65.4797 13.1533 65.5597 13.26C65.6664 13.34 65.7597 13.4333 65.8397 13.54H66.1597L66.6397 14.14H66.9997L67.3597 14.74H66.9197C66.9997 14.8733 67.0664 15.0067 67.1197 15.14H66.7997C66.8797 15.2733 66.9464 15.4067 66.9997 15.54C67.053 15.6733 67.1064 15.8067 67.1597 15.94H67.8397C67.893 16.1 67.9197 16.2333 67.9197 16.34H68.3997C68.4264 16.3933 68.4397 16.46 68.4397 16.54C68.4397 16.62 68.453 16.6867 68.4797 16.74H71.3197V16.94H68.7597C68.7864 17.0467 68.7997 17.1933 68.7997 17.38V17.54H67.3197C67.213 18.02 66.9464 18.26 66.5197 18.26H58.5197C58.1464 18.26 57.8397 18.2067 57.5997 18.1C57.3864 17.9933 57.1597 17.8333 56.9197 17.62L56.7997 17.54H58.2797C58.1464 17.4333 57.9597 17.3267 57.7197 17.22C57.4797 17.0867 57.173 16.9933 56.7997 16.94H55.3597C54.7997 17.02 54.413 17.22 54.1997 17.54H55.9197C55.8397 17.7 55.7997 17.86 55.7997 18.02C55.7997 18.1533 55.813 18.26 55.8397 18.34H55.2397C55.2664 18.4733 55.373 18.6067 55.5597 18.74H51.0397C51.1997 18.8733 51.4797 19.0067 51.8797 19.14H53.0397C53.253 19.22 53.5064 19.3 53.7997 19.38C54.1197 19.4333 54.453 19.4867 54.7997 19.54H56.0797C56.293 19.5667 56.5197 19.5933 56.7597 19.62C56.9997 19.6467 57.253 19.6867 57.5197 19.74H57.5597C58.013 19.7933 58.453 19.86 58.8797 19.94C59.3064 19.9933 59.7064 20.06 60.0797 20.14H60.3197C60.6397 20.1933 60.933 20.26 61.1997 20.34C61.493 20.3933 61.773 20.46 62.0397 20.54H62.1997C62.333 20.5667 62.453 20.5933 62.5597 20.62C62.6664 20.6467 62.773 20.6867 62.8797 20.74H62.1197C62.2264 20.7667 62.3197 20.7933 62.3997 20.82C62.5064 20.8467 62.613 20.8867 62.7197 20.94H64.3997C64.4797 20.9667 64.5597 20.9933 64.6397 21.02C64.7464 21.0467 64.8397 21.0867 64.9197 21.14H59.2797C59.813 21.3533 60.2397 21.5533 60.5597 21.74H67.5597C67.7197 21.8467 67.8797 21.9533 68.0397 22.06C68.1997 22.14 68.3464 22.2333 68.4797 22.34H59.3597C59.413 22.3667 59.4664 22.3933 59.5197 22.42C59.573 22.4467 59.613 22.4867 59.6397 22.54H63.4797C63.5597 22.5933 63.6397 22.66 63.7197 22.74C63.7997 22.82 63.8664 22.8867 63.9197 22.94H63.3197C63.5864 23.18 63.813 23.4467 63.9997 23.74H61.9197C61.973 23.7933 62.0264 23.86 62.0797 23.94C62.133 24.02 62.173 24.0867 62.1997 24.14H70.1197L70.4797 24.74H63.0397C63.093 24.8467 63.1464 24.9533 63.1997 25.06C63.253 25.14 63.293 25.2333 63.3197 25.34H66.7597L66.8797 25.74H67.4397L67.5597 26.14H68.2797C68.333 26.2467 68.3597 26.38 68.3597 26.54C68.3864 26.6733 68.413 26.8067 68.4397 26.94L68.4797 27.34H68.7197C68.7464 27.3933 68.7597 27.46 68.7597 27.54C68.7597 27.62 68.7597 27.6867 68.7597 27.74H68.8797V28.34H69.2397V28.46C69.2397 28.5667 69.2264 28.6733 69.1997 28.78C69.1997 28.8867 69.1997 29.0067 69.1997 29.14H68.7997V29.34H68.8797C68.8797 29.4467 68.8664 29.5533 68.8397 29.66C68.8397 29.74 68.8264 29.8333 68.7997 29.94H68.9197L68.7997 30.54H69.1197C69.093 30.6467 69.0664 30.7533 69.0397 30.86C69.013 30.94 68.973 31.0333 68.9197 31.14H68.4797C68.4797 31.1667 68.4664 31.1933 68.4397 31.22C68.4397 31.2467 68.4397 31.2867 68.4397 31.34H69.3997L69.1597 31.94H66.4797C66.453 32.0467 66.3997 32.1533 66.3197 32.26C66.2664 32.34 66.213 32.4333 66.1597 32.54H71.7997L71.6797 32.74H74.1197C74.0664 32.8467 73.9997 32.9533 73.9197 33.06C73.8664 33.14 73.7997 33.2333 73.7197 33.34H68.7197C68.693 33.3667 68.6664 33.3933 68.6397 33.42C68.613 33.4467 68.5864 33.4867 68.5597 33.54ZM58.1597 16.94H59.3597C59.2797 16.9133 59.1864 16.9 59.0797 16.9C58.9997 16.9 58.9064 16.9 58.7997 16.9C58.693 16.9 58.5864 16.9 58.4797 16.9C58.373 16.9 58.2664 16.9133 58.1597 16.94ZM97.2503 24.94V25.14H92.8103C92.837 25.1933 92.8503 25.26 92.8503 25.34C92.8503 25.42 92.8503 25.4867 92.8503 25.54H90.7303V26.14H92.9703V26.74H94.8103V27.34H93.9303V27.54H96.5303V28.34H94.7303V28.7C94.7303 28.8867 94.717 29.0333 94.6903 29.14H95.2103C95.2103 29.2733 95.197 29.4067 95.1703 29.54C95.1703 29.6733 95.157 29.8067 95.1303 29.94H93.4103V30.14H94.7303L94.6903 30.54H93.2103L93.0903 31.14H94.4103C94.3836 31.2467 94.357 31.3533 94.3303 31.46C94.3303 31.54 94.3036 31.6333 94.2503 31.74H94.7703L94.5303 32.54H93.7703C93.7436 32.5933 93.717 32.66 93.6903 32.74C93.6903 32.82 93.6636 32.8867 93.6103 32.94H93.9303C93.877 33.0467 93.8236 33.1533 93.7703 33.26C93.7436 33.34 93.7036 33.4333 93.6503 33.54H93.6103C93.5036 33.8067 93.357 34.0733 93.1703 34.34H92.6103C92.5036 34.4733 92.4103 34.6067 92.3303 34.74C92.2503 34.8733 92.1436 35.0067 92.0103 35.14H92.4103C92.3836 35.1933 92.3303 35.26 92.2503 35.34L92.0503 35.54H92.2503C92.2236 35.5667 92.197 35.5933 92.1703 35.62C92.1436 35.6467 92.1036 35.6867 92.0503 35.74H92.0903C91.7703 36.06 91.4503 36.3267 91.1303 36.54H91.0503C90.757 36.7533 90.4103 36.9533 90.0103 37.14H89.6903C88.597 37.6467 87.3436 37.9 85.9303 37.9C84.597 37.9 83.437 37.6467 82.4503 37.14H82.7703C82.477 37.0067 82.1836 36.8067 81.8903 36.54H81.9303C81.637 36.2733 81.3836 36.0067 81.1703 35.74V36.54H81.0103V37.14H81.2503V37.94H80.1703V38.74H80.7703V39.34H81.8903V39.74H81.1303V39.94H77.7303V40.74H78.6903V40.94H81.8503V41.74H80.1303V42.34H80.4903V43.14H80.9303V43.94H80.7703V44.14H80.9303C80.877 44.5133 80.7036 44.78 80.4103 44.94H79.6503C79.517 45.0467 79.3303 45.1 79.0903 45.1H71.6903C71.4236 45.1 71.2236 45.0467 71.0903 44.94H71.8903C71.597 44.78 71.4236 44.5133 71.3703 44.14H71.2103V43.94H71.3703V43.14H70.9303V42.34H70.5703V41.74H72.2903V40.94H69.1303V40.74H68.1703V39.94H71.5703V39.74H72.3303V39.34H71.2103V38.74H70.6103V37.94H71.6903V37.14H71.4503V36.54H71.6103V35.74H71.8503V35.54H71.1703V35.34H71.2103V35.14H70.7703V34.34H71.3703V32.94H71.0903V32.54H71.8503V31.74H71.3303V31.14H70.0503V30.54H72.0103V30.14H70.8903V29.94H71.4503V29.14H70.4903V28.34H72.3303V27.54H74.1303V27.34H72.2903V26.74H70.5303V26.14H68.3703V25.54H73.5303V25.14H67.6103V24.94H70.4503V24.54H71.8503V24.14H71.6903V23.34H71.3703V22.94H70.4903V22.14H71.1303V21.34H73.4503V20.74H69.7703V20.34H74.3303V19.54H75.3703V19.34H73.4503V18.94H73.7303V18.34H72.4103V18.14H77.5703V17.94H74.0103V17.78C74.0103 17.5933 74.0503 17.4467 74.1303 17.34H72.2503C72.437 16.9133 72.7703 16.7 73.2503 16.7H80.0503C80.5036 16.7 80.8236 16.9133 81.0103 17.34H82.7303C83.0236 17.1533 83.3303 16.9933 83.6503 16.86C83.997 16.7267 84.357 16.62 84.7303 16.54H84.0103C84.6503 16.38 85.357 16.3 86.1303 16.3C86.9303 16.3 87.6903 16.38 88.4103 16.54H89.1303C89.877 16.7 90.5836 16.9667 91.2503 17.34H93.5703C93.8636 17.4733 94.157 17.6733 94.4503 17.94H94.2503L94.4903 18.14H96.5303L96.7703 18.34H92.5703L93.1303 18.94H94.6903L94.9703 19.34H96.8903C96.917 19.3667 96.9436 19.3933 96.9703 19.42C96.997 19.4467 97.0236 19.4867 97.0503 19.54H96.0103C96.197 19.7533 96.357 20.02 96.4903 20.34H91.9303C91.9836 20.3933 92.0236 20.46 92.0503 20.54C92.077 20.62 92.1036 20.6867 92.1303 20.74H95.7703C95.8236 20.8467 95.877 20.9533 95.9303 21.06C95.9836 21.14 96.0236 21.2333 96.0503 21.34H93.7303L93.9703 22.14H93.3303C93.3836 22.2467 93.4236 22.38 93.4503 22.54C93.477 22.6733 93.5036 22.8067 93.5303 22.94H94.4103C94.4636 23.1 94.4903 23.2333 94.4903 23.34H94.8103L94.9303 24.14H94.1703L94.2103 24.54H89.3303C89.357 24.5933 89.3703 24.66 89.3703 24.74C89.3703 24.82 89.3703 24.8867 89.3703 24.94H97.2503ZM82.8903 17.34C82.9436 17.42 82.9703 17.5667 82.9703 17.78V17.94H84.2103C84.4503 17.7267 84.7303 17.5267 85.0503 17.34H82.8903ZM81.3703 18.14V18.34H85.6103C85.637 18.2867 85.6636 18.2467 85.6903 18.22C85.7436 18.1933 85.7836 18.1667 85.8103 18.14H81.3703ZM83.2503 23.46C82.5036 23.46 81.9836 23.6867 81.6903 24.14H81.8103C81.7836 24.1933 81.757 24.26 81.7303 24.34C81.7036 24.3933 81.6636 24.46 81.6103 24.54H84.2103C84.1836 24.4333 84.117 24.3 84.0103 24.14H84.7703C84.477 23.6867 83.9703 23.46 83.2503 23.46ZM87.4103 25.14L87.3303 24.94H77.2903C77.2903 24.9667 77.277 24.9933 77.2503 25.02C77.2503 25.0467 77.2503 25.0867 77.2503 25.14H87.4103ZM83.2103 26.74C83.2103 26.6333 83.2103 26.54 83.2103 26.46C83.2103 26.3533 83.197 26.2467 83.1703 26.14H80.9303V25.78C80.9303 25.7267 80.917 25.6867 80.8903 25.66C80.8903 25.6067 80.8903 25.5667 80.8903 25.54H77.9703C77.9436 25.5933 77.9303 25.6733 77.9303 25.78V26.14H80.0903C80.0636 26.2467 80.0503 26.3533 80.0503 26.46C80.0503 26.54 80.0503 26.6333 80.0503 26.74H81.8103V27.34H83.6103V27.54H81.8103C81.8103 27.6467 81.8103 27.78 81.8103 27.94C81.837 28.0733 81.8503 28.2067 81.8503 28.34H80.0103C80.0103 28.5 80.0236 28.6333 80.0503 28.74C80.0503 28.9267 80.0636 29.06 80.0903 29.14H81.0503C81.1303 29.46 81.2236 29.7267 81.3303 29.94H80.7703L80.8903 30.14H82.0503C82.2103 30.3267 82.3703 30.46 82.5303 30.54H80.5703C80.8903 30.6733 81.237 30.74 81.6103 30.74C81.957 30.74 82.2903 30.6733 82.6103 30.54H84.0503C84.2103 30.46 84.3703 30.3267 84.5303 30.14H83.2103L83.3303 29.94H85.0503C85.157 29.7267 85.2503 29.46 85.3303 29.14H84.8103L84.9303 28.42V28.34H86.7303C86.7303 28.2067 86.7303 28.0733 86.7303 27.94C86.7303 27.8067 86.7436 27.6733 86.7703 27.54H84.1703V27.34H85.0503V26.74H83.2103ZM118.776 35.34V35.74H122.256V36.42C122.256 36.4733 122.242 36.5133 122.216 36.54H120.336C120.282 36.9133 120.109 37.18 119.816 37.34H119.456C119.322 37.4467 119.136 37.5 118.896 37.5H111.896C111.656 37.5 111.469 37.4467 111.336 37.34H111.656C111.389 37.1533 111.229 36.8867 111.176 36.54H113.096V35.74H111.496C111.362 35.8733 111.216 36.0067 111.056 36.14C110.922 36.2733 110.776 36.4067 110.616 36.54H110.176C109.696 36.8867 109.216 37.1533 108.736 37.34H107.456C107.269 37.42 107.056 37.4867 106.816 37.54C106.602 37.62 106.376 37.6867 106.136 37.74H105.816C105.549 37.7933 105.269 37.8333 104.976 37.86C104.709 37.8867 104.429 37.9 104.136 37.9C103.816 37.9 103.496 37.8867 103.176 37.86C102.882 37.8333 102.589 37.7933 102.296 37.74H102.616C102.349 37.6867 102.082 37.62 101.816 37.54C101.576 37.4867 101.336 37.42 101.096 37.34H102.336C101.749 37.1267 101.216 36.86 100.736 36.54H101.176C100.989 36.4067 100.816 36.2733 100.656 36.14C100.496 36.0067 100.336 35.8733 100.176 35.74H98.1756L97.8156 35.34C97.789 35.2867 97.749 35.22 97.6956 35.14C97.6423 35.06 97.589 34.9933 97.5356 34.94H98.7356C98.6823 34.8333 98.6156 34.74 98.5356 34.66C98.4823 34.5533 98.429 34.4467 98.3756 34.34H98.0156C98.0156 34.3133 97.989 34.2467 97.9356 34.14H97.5756L97.4556 33.94H97.4956L97.2556 33.34H97.0556C97.029 33.2333 97.0023 33.14 96.9756 33.06C96.949 32.9533 96.9223 32.8467 96.8956 32.74H95.3756C95.2956 32.4467 95.2556 32.18 95.2556 31.94H96.5756V31.54C96.5756 31.4067 96.5756 31.2733 96.5756 31.14C96.5756 30.98 96.589 30.8467 96.6156 30.74H97.8156C97.8423 30.6067 97.869 30.4733 97.8956 30.34C97.9223 30.18 97.949 30.0467 97.9756 29.94H96.8556L96.9356 29.74H96.9756L97.0556 29.54H97.0156C97.069 29.4333 97.1223 29.34 97.1756 29.26C97.229 29.1533 97.269 29.0467 97.2956 28.94H94.9356L95.1756 28.54H94.2956C94.3756 28.46 94.429 28.3933 94.4556 28.34H95.8956C95.949 28.2867 96.0023 28.22 96.0556 28.14C96.109 28.06 96.1623 27.9933 96.2156 27.94H96.2956C96.5623 27.62 96.8423 27.3533 97.1356 27.14H93.8556C94.0423 27.0067 94.2423 26.8733 94.4556 26.74C94.6423 26.58 94.8423 26.4467 95.0556 26.34H97.2556L97.6156 26.14H98.7356C98.789 26.0867 98.8556 26.0467 98.9356 26.02C99.0156 25.9933 99.0823 25.9667 99.1356 25.94H99.6156C100.096 25.7 100.616 25.5 101.176 25.34H103.616C103.989 25.2067 104.362 25.1 104.736 25.02C105.136 24.9133 105.549 24.82 105.976 24.74H104.976L105.616 24.62L109.856 23.94V23.74H111.896V23.54H108.056V23.34H110.336C110.336 23.2067 110.336 23.1 110.336 23.02C110.336 22.9133 110.322 22.82 110.296 22.74C110.269 22.5 110.176 22.3 110.016 22.14H109.336C109.309 22.1133 109.242 22.0733 109.136 22.02L108.856 22.14H108.176C108.069 22.22 107.962 22.3133 107.856 22.42C107.749 22.5 107.629 22.6067 107.496 22.74H107.536C107.242 23.0333 106.869 23.18 106.416 23.18H99.6156C99.2156 23.18 98.949 23.0333 98.8156 22.74H98.7756C98.6956 22.6067 98.669 22.46 98.6956 22.3V22.14H99.3356C99.3623 22.0867 99.3756 22.02 99.3756 21.94H96.8156C96.8156 21.8333 96.8423 21.7 96.8956 21.54H102.656C102.656 21.5133 102.682 21.4467 102.736 21.34H99.1756C99.2556 21.0733 99.3756 20.8067 99.5356 20.54H100.216C100.296 20.4067 100.389 20.2733 100.496 20.14C100.602 20.0067 100.709 19.8733 100.816 19.74H97.8156L98.1756 19.34H103.976C104.082 19.2333 104.189 19.14 104.296 19.06C104.429 18.9533 104.549 18.8467 104.656 18.74H100.976L101.216 18.54H100.096C100.229 18.4333 100.376 18.34 100.536 18.26C100.696 18.1533 100.856 18.0467 101.016 17.94H102.896C103.456 17.62 104.042 17.3533 104.656 17.14H104.936C105.656 16.8733 106.456 16.6733 107.336 16.54C108.242 16.38 109.229 16.3 110.296 16.3C112.482 16.3 114.336 16.58 115.856 17.14H115.536C115.829 17.2467 116.109 17.3667 116.376 17.5C116.669 17.6333 116.949 17.78 117.216 17.94H115.336L116.176 18.54H117.296L117.536 18.74H121.216L121.816 19.34H116.016C116.069 19.3933 116.122 19.46 116.176 19.54C116.229 19.62 116.282 19.6867 116.336 19.74H119.296C119.402 19.8467 119.496 19.98 119.576 20.14C119.682 20.2733 119.762 20.4067 119.816 20.54H119.176L119.536 21.34H123.096C123.149 21.4467 123.176 21.5133 123.176 21.54H117.416C117.469 21.5933 117.496 21.66 117.496 21.74C117.522 21.82 117.549 21.8867 117.576 21.94H118.896C118.896 21.9667 118.896 21.9933 118.896 22.02C118.922 22.0467 118.936 22.0867 118.936 22.14H119.616L119.856 23.34H117.536C117.536 23.3667 117.536 23.3933 117.536 23.42C117.562 23.4467 117.576 23.4867 117.576 23.54H121.416V23.74H119.416V23.94C119.442 24.0733 119.456 24.2067 119.456 24.34C119.456 24.4733 119.456 24.6067 119.456 24.74H120.496V25.34H118.016V25.94H117.576V26.14H116.496V26.34H114.296V27.14H117.576V27.94H117.496V28.34H116.056V28.54H116.936V28.94H119.576V29.54H119.096V29.94H119.416V30.74H119.176V31.94H117.856V32.74H119.376V33.34H119.576V34.14H119.936V34.34H120.256V34.94H119.016V35.34H118.776ZM107.176 21.9C106.989 21.9 106.856 21.9133 106.776 21.94H107.616C107.536 21.9133 107.389 21.9 107.176 21.9ZM107.456 28.86L107.096 28.94H107.456V28.86ZM106.096 29.94H107.216C106.922 30.1533 106.776 30.42 106.776 30.74H105.576V30.86C105.576 31.1267 105.669 31.3533 105.856 31.54C105.989 31.7267 106.256 31.86 106.656 31.94H107.616C108.016 31.86 108.362 31.7267 108.656 31.54C108.896 31.3267 109.122 31.06 109.336 30.74H109.536C109.589 30.6067 109.642 30.4867 109.696 30.38C109.749 30.2467 109.789 30.1 109.816 29.94H109.496C109.496 29.8867 109.496 29.8467 109.496 29.82C109.522 29.7933 109.536 29.7667 109.536 29.74H109.576V29.54H110.056C110.082 29.4333 110.096 29.34 110.096 29.26C110.096 29.1533 110.096 29.0467 110.096 28.94H109.416L107.456 29.38C107.349 29.4067 107.242 29.4333 107.136 29.46C107.056 29.4867 106.976 29.5133 106.896 29.54C106.816 29.5667 106.736 29.5933 106.656 29.62C106.576 29.6467 106.509 29.6867 106.456 29.74H106.416C106.362 29.7667 106.309 29.7933 106.256 29.82C106.202 29.8467 106.149 29.8867 106.096 29.94ZM106.296 31.94H105.296C105.402 31.9667 105.562 31.98 105.776 31.98C105.856 31.98 105.936 31.98 106.016 31.98C106.122 31.98 106.216 31.9667 106.296 31.94ZM145.018 24.54H147.738C147.738 24.5667 147.725 24.5933 147.698 24.62C147.672 24.6467 147.645 24.6867 147.618 24.74H146.698C146.485 25.0067 146.192 25.14 145.818 25.14H138.018C137.645 25.14 137.352 25.0067 137.138 24.74H138.058L137.938 24.54H135.178L135.058 24.34C135.032 24.2333 134.965 24.1 134.858 23.94H134.178C134.018 23.6467 133.845 23.4467 133.658 23.34H134.658C134.445 23.2067 134.192 23.14 133.898 23.14C133.578 23.14 133.312 23.2067 133.098 23.34H132.258C132.045 23.4467 131.872 23.6467 131.738 23.94H131.378C131.325 24.0467 131.272 24.18 131.218 24.34H133.378C133.352 24.3933 133.338 24.46 133.338 24.54H134.418C134.392 24.5933 134.378 24.66 134.378 24.74H135.698C135.672 24.7933 135.658 24.86 135.658 24.94C135.658 25.02 135.645 25.0867 135.618 25.14H135.778V25.34H134.218V25.74H129.218V25.94H136.898C136.872 26.0733 136.858 26.2067 136.858 26.34C136.858 26.4733 136.858 26.6067 136.858 26.74H129.778V26.94H132.618V27.14H131.858V27.94H129.698C129.698 28.0467 129.698 28.1533 129.698 28.26C129.698 28.34 129.712 28.4333 129.738 28.54V28.94H132.138C132.138 29.1267 132.152 29.26 132.178 29.34H129.978C130.032 29.6867 130.085 29.9533 130.138 30.14H129.698C129.858 30.5133 130.085 30.78 130.378 30.94H131.698C131.912 31.02 132.138 31.06 132.378 31.06C132.672 31.06 132.912 31.02 133.098 30.94H133.658C133.898 30.8067 134.125 30.54 134.338 30.14H133.258L133.378 29.86C133.432 29.7533 133.485 29.66 133.538 29.58C133.618 29.4733 133.685 29.3933 133.738 29.34H136.538C136.778 29.1533 137.045 29.06 137.338 29.06H145.138C145.405 29.06 145.658 29.1533 145.898 29.34H143.098C143.365 29.5533 143.472 29.82 143.418 30.14H144.498C144.472 30.2467 144.445 30.3667 144.418 30.5C144.418 30.6333 144.392 30.78 144.338 30.94H143.738L143.618 31.34H146.178L146.098 31.54H145.258L145.178 31.74H140.738L140.618 31.94H145.458L145.018 32.74H145.418L145.298 32.94H142.298C142.218 33.0733 142.125 33.2067 142.018 33.34C141.938 33.4733 141.845 33.6067 141.738 33.74H141.018C140.992 33.7667 140.965 33.7933 140.938 33.82C140.912 33.8467 140.885 33.8867 140.858 33.94H143.618C143.592 33.9667 143.565 33.9933 143.538 34.02C143.512 34.0467 143.485 34.0867 143.458 34.14H141.458C141.432 34.1667 141.405 34.1933 141.378 34.22C141.352 34.2467 141.312 34.2867 141.258 34.34H142.938L142.538 34.74H142.338L142.138 34.94H142.618L142.138 35.34H142.858C142.725 35.4467 142.578 35.5533 142.418 35.66C142.285 35.74 142.138 35.8333 141.978 35.94H142.778L142.458 36.14H141.578L140.858 36.54H141.098C140.672 36.78 140.192 36.98 139.658 37.14H138.978C138.738 37.22 138.498 37.3 138.258 37.38C138.018 37.4333 137.778 37.4867 137.538 37.54H137.178C136.992 37.5667 136.805 37.5933 136.618 37.62C136.432 37.6733 136.245 37.7133 136.058 37.74H136.858C136.485 37.7933 136.098 37.8333 135.698 37.86C135.298 37.8867 134.885 37.9 134.458 37.9C134.058 37.9 133.672 37.8867 133.298 37.86C132.925 37.8333 132.552 37.7933 132.178 37.74H131.338C131.152 37.7133 130.965 37.6733 130.778 37.62C130.618 37.5933 130.445 37.5667 130.258 37.54H130.618C130.378 37.4867 130.138 37.4333 129.898 37.38C129.658 37.3 129.432 37.22 129.218 37.14H129.898C129.392 36.98 128.925 36.78 128.498 36.54H128.218C128.112 36.4867 127.992 36.4333 127.858 36.38C127.752 36.3 127.645 36.22 127.538 36.14H128.378L128.058 35.94H127.258L126.458 35.34H125.778C125.698 35.2867 125.618 35.22 125.538 35.14C125.458 35.06 125.392 34.9933 125.338 34.94H124.818L124.618 34.74H124.818L124.418 34.34H122.778C122.698 34.26 122.645 34.1933 122.618 34.14H124.618C124.538 34.06 124.485 33.9933 124.458 33.94H121.658C121.632 33.8867 121.578 33.82 121.498 33.74H122.218C122.112 33.6067 122.018 33.4733 121.938 33.34C121.858 33.2067 121.778 33.0733 121.698 32.94H124.698L124.578 32.74H124.178C124.098 32.6067 124.018 32.4733 123.938 32.34C123.885 32.2067 123.832 32.0733 123.778 31.94H118.978L118.898 31.74H123.338L123.258 31.54H124.098L124.018 31.34H121.458L121.338 30.94H120.018C119.992 30.8067 119.965 30.6733 119.938 30.54C119.912 30.4067 119.885 30.2733 119.858 30.14H120.258L120.138 29.34H122.338V28.94H119.938V28.74C119.912 28.6067 119.898 28.4733 119.898 28.34C119.898 28.2067 119.898 28.0733 119.898 27.94H122.058V27.14H122.818V26.94H119.978V26.74H127.058V25.94H119.418V25.74H124.418V25.34H125.978V25.14H125.818C125.845 25.0867 125.858 25.02 125.858 24.94C125.858 24.86 125.858 24.7933 125.858 24.74H124.578V24.54H123.498C123.498 24.46 123.512 24.3933 123.538 24.34H121.378C121.432 24.18 121.458 24.0467 121.458 23.94H121.858L121.978 23.34H122.818L123.058 22.54H123.138C123.165 22.4333 123.205 22.34 123.258 22.26C123.312 22.1533 123.352 22.0467 123.378 21.94H123.178C123.232 21.8067 123.285 21.6733 123.338 21.54C123.418 21.38 123.498 21.2467 123.578 21.14H123.338C123.392 21.0333 123.445 20.94 123.498 20.86C123.578 20.7533 123.658 20.6467 123.738 20.54H123.778C123.885 20.4067 123.992 20.2733 124.098 20.14C124.205 19.98 124.312 19.8467 124.418 19.74H124.458C124.618 19.5267 124.818 19.3267 125.058 19.14H124.858L125.098 18.94H125.018L125.258 18.74H126.738C126.792 18.6867 126.845 18.6467 126.898 18.62C126.952 18.5933 126.992 18.5667 127.018 18.54H126.138C126.192 18.4867 126.245 18.4467 126.298 18.42C126.352 18.3933 126.392 18.3667 126.418 18.34H126.098C126.578 18.02 127.045 17.7533 127.498 17.54H128.298C128.458 17.46 128.618 17.3933 128.778 17.34C128.938 17.26 129.098 17.1933 129.258 17.14H128.338C128.445 17.0867 128.538 17.0467 128.618 17.02C128.725 16.9933 128.832 16.9667 128.938 16.94H128.898C129.032 16.8867 129.152 16.8467 129.258 16.82C129.392 16.7933 129.512 16.7667 129.618 16.74H129.498C130.672 16.4467 131.898 16.3 133.178 16.3C133.898 16.3 134.578 16.34 135.218 16.42C135.858 16.5 136.458 16.6067 137.018 16.74H137.138C137.272 16.7667 137.392 16.7933 137.498 16.82C137.632 16.8467 137.752 16.8867 137.858 16.94H137.898C138.005 16.9667 138.098 16.9933 138.178 17.02C138.285 17.0467 138.392 17.0867 138.498 17.14H139.418C139.818 17.2733 140.152 17.4067 140.418 17.54H139.578C139.845 17.6467 140.098 17.78 140.338 17.94C140.578 18.0733 140.818 18.2067 141.058 18.34H141.378C141.432 18.3667 141.485 18.3933 141.538 18.42C141.592 18.4467 141.632 18.4867 141.658 18.54H142.538C142.592 18.5667 142.632 18.5933 142.658 18.62C142.712 18.6467 142.765 18.6867 142.818 18.74H141.338L141.578 18.94H141.658L141.898 19.14H142.058C142.192 19.2467 142.312 19.3533 142.418 19.46C142.525 19.54 142.632 19.6333 142.738 19.74H142.698C142.832 19.8733 142.952 20.0067 143.058 20.14C143.192 20.2733 143.312 20.4067 143.418 20.54H143.378C143.458 20.6467 143.538 20.7533 143.618 20.86C143.698 20.94 143.765 21.0333 143.818 21.14H144.058C144.165 21.2733 144.258 21.4067 144.338 21.54C144.418 21.6733 144.485 21.8067 144.538 21.94H144.778C144.832 22.0467 144.885 22.1533 144.938 22.26C144.992 22.34 145.032 22.4333 145.058 22.54H145.018C145.072 22.6733 145.125 22.8067 145.178 22.94C145.232 23.0733 145.272 23.2067 145.298 23.34H144.298L144.418 23.94H145.098V24.34L145.018 24.54ZM167.941 26.54V26.94H173.021V27.34H169.941V27.74H168.501V28.14H169.741V28.38C169.741 28.54 169.728 28.66 169.701 28.74H170.261C170.075 29.22 169.728 29.46 169.221 29.46H157.301V29.54H158.901V29.66C158.901 29.7667 158.901 29.8867 158.901 30.02C158.901 30.1267 158.915 30.2333 158.941 30.34H156.781C156.781 30.42 156.781 30.5 156.781 30.58C156.808 30.6333 156.821 30.6867 156.821 30.74H156.581C156.581 30.8467 156.608 30.98 156.661 31.14H156.821C156.955 31.5133 157.168 31.78 157.461 31.94H156.381C156.568 32.0467 156.821 32.1 157.141 32.1C157.355 32.1 157.528 32.0467 157.661 31.94H159.541C159.648 31.8867 159.741 31.8067 159.821 31.7C159.928 31.5933 160.048 31.4867 160.181 31.38L160.421 31.14H159.661C159.901 30.9267 160.261 30.82 160.741 30.82H168.301C168.621 30.82 168.861 30.9267 169.021 31.14H169.741C169.875 31.3267 169.941 31.5133 169.941 31.7C169.915 31.7533 169.901 31.8333 169.901 31.94H168.021C167.968 32.2067 167.888 32.4733 167.781 32.74H165.821C165.741 32.8733 165.675 33.0067 165.621 33.14H170.581C170.528 33.2733 170.448 33.4067 170.341 33.54C170.261 33.6733 170.168 33.8067 170.061 33.94H168.861C168.755 34.1 168.648 34.2333 168.541 34.34H168.821C168.795 34.3667 168.768 34.3933 168.741 34.42C168.715 34.4467 168.688 34.4867 168.661 34.54H166.421L166.221 34.74H166.901C166.875 34.7667 166.835 34.7933 166.781 34.82C166.755 34.8467 166.728 34.8867 166.701 34.94H167.941C167.755 35.1267 167.515 35.3267 167.221 35.54H166.621C166.595 35.5667 166.555 35.5933 166.501 35.62C166.448 35.6467 166.395 35.6867 166.341 35.74H165.901C165.475 36.0333 165.008 36.3 164.501 36.54H163.981C163.661 36.7 163.315 36.8467 162.941 36.98C162.595 37.1133 162.221 37.2333 161.821 37.34H161.181C160.888 37.42 160.581 37.4867 160.261 37.54C159.941 37.62 159.595 37.6867 159.221 37.74H160.901C160.528 37.7933 160.141 37.8333 159.741 37.86C159.341 37.8867 158.915 37.9 158.461 37.9C158.035 37.9 157.608 37.8867 157.181 37.86C156.755 37.8333 156.341 37.7933 155.941 37.74H154.261C153.915 37.6867 153.581 37.62 153.261 37.54C152.941 37.4867 152.621 37.42 152.301 37.34H152.941C152.221 37.1533 151.541 36.8867 150.901 36.54H151.421C150.941 36.2733 150.528 36.0067 150.181 35.74H150.621C150.568 35.6867 150.515 35.6467 150.461 35.62C150.435 35.5933 150.395 35.5667 150.341 35.54H150.941C150.835 35.4333 150.728 35.34 150.621 35.26C150.515 35.1533 150.408 35.0467 150.301 34.94H149.021L148.821 34.74H148.141C148.115 34.6867 148.088 34.6467 148.061 34.62C148.035 34.5933 148.008 34.5667 147.981 34.54H150.181C150.155 34.4867 150.101 34.42 150.021 34.34H149.741C149.688 34.2867 149.635 34.22 149.581 34.14C149.528 34.06 149.475 33.9933 149.421 33.94H150.621C150.541 33.8067 150.461 33.6733 150.381 33.54C150.301 33.4067 150.221 33.2733 150.141 33.14H145.141C145.061 33.0067 144.995 32.8733 144.941 32.74H146.901L146.541 31.94H147.621C147.568 31.8067 147.515 31.6733 147.461 31.54C147.435 31.4067 147.395 31.2733 147.341 31.14H147.221L147.101 30.74H147.381L147.261 30.34H149.421C149.395 30.2067 149.368 30.0733 149.341 29.94C149.315 29.8067 149.288 29.6733 149.261 29.54H147.661L147.581 28.74H147.021C147.021 28.6333 147.008 28.54 146.981 28.46C146.981 28.3533 146.981 28.2467 146.981 28.14H145.741V27.74H147.141V27.34H150.221V26.94H145.141V26.86C145.141 26.7267 145.155 26.62 145.181 26.54H152.101C152.101 26.4333 152.101 26.34 152.101 26.26C152.128 26.1533 152.141 26.0467 152.141 25.94H145.781C145.781 25.8867 145.781 25.8467 145.781 25.82C145.808 25.7933 145.821 25.7667 145.821 25.74H148.461C148.461 25.66 148.475 25.5933 148.501 25.54H151.461V25.34H145.821C145.848 25.2067 145.875 25.0733 145.901 24.94C145.928 24.8067 145.955 24.6733 145.981 24.54H147.501C147.501 24.4333 147.528 24.3 147.581 24.14H146.261C146.261 24.0867 146.261 24.0467 146.261 24.02C146.288 23.9933 146.301 23.9667 146.301 23.94H147.261C147.261 23.8867 147.261 23.8467 147.261 23.82C147.288 23.7933 147.301 23.7667 147.301 23.74H146.301L146.381 23.54H147.341L147.461 23.14H148.221L148.461 22.54H147.741C147.795 22.4067 147.848 22.2733 147.901 22.14C147.955 21.98 148.021 21.8467 148.101 21.74H147.981L148.061 21.54H147.061C147.115 21.4333 147.141 21.3667 147.141 21.34H146.221L146.461 20.94H148.421C148.448 20.8867 148.501 20.82 148.581 20.74H149.301C149.408 20.6067 149.501 20.4733 149.581 20.34C149.688 20.18 149.795 20.0467 149.901 19.94H149.181C149.261 19.8333 149.341 19.74 149.421 19.66C149.528 19.5533 149.635 19.4467 149.741 19.34H151.301L151.701 18.94H149.341C149.688 18.6467 150.035 18.38 150.381 18.14H152.581L152.901 17.94H152.181C152.395 17.8067 152.648 17.6733 152.941 17.54H154.501C155.221 17.1933 155.968 16.9267 156.741 16.74H154.501C155.088 16.6067 155.701 16.5 156.341 16.42C156.981 16.34 157.648 16.3 158.341 16.3C159.035 16.3 159.688 16.34 160.301 16.42C160.915 16.5 161.501 16.6067 162.061 16.74H164.261C164.661 16.8467 165.035 16.9667 165.381 17.1C165.755 17.2333 166.115 17.38 166.461 17.54H164.901C165.035 17.5933 165.155 17.66 165.261 17.74C165.395 17.7933 165.515 17.86 165.621 17.94H166.341C166.395 17.9667 166.448 17.9933 166.501 18.02C166.555 18.0467 166.608 18.0867 166.661 18.14H164.461C164.808 18.38 165.155 18.6467 165.501 18.94H167.901L168.301 19.34H166.741C166.848 19.4467 166.941 19.5533 167.021 19.66C167.128 19.74 167.221 19.8333 167.301 19.94H168.021C168.128 20.0467 168.221 20.18 168.301 20.34C168.408 20.4733 168.515 20.6067 168.621 20.74H167.861C167.888 20.7933 167.941 20.86 168.021 20.94H166.021L166.261 21.34H167.181L167.301 21.54H168.341C168.341 21.5667 168.368 21.6333 168.421 21.74H168.541L168.901 22.54L169.141 23.14H169.181L169.301 23.54H168.821L168.901 23.74H169.261L169.341 23.94H169.981C169.981 23.9667 169.981 23.9933 169.981 24.02C170.008 24.0467 170.021 24.0867 170.021 24.14H169.701L169.821 24.54H168.301L168.421 25.34H174.061V25.54H171.101C171.101 25.5667 171.101 25.5933 171.101 25.62C171.128 25.6467 171.141 25.6867 171.141 25.74H168.461C168.488 25.7933 168.501 25.86 168.501 25.94H174.861C174.861 26.0467 174.861 26.1533 174.861 26.26C174.861 26.34 174.875 26.4333 174.901 26.54H167.941ZM155.781 23.94V24.14H157.061V24.46H160.261V24.14H160.541V23.94H159.901V23.74H159.501C159.501 23.66 159.488 23.5933 159.461 23.54H159.941C159.941 23.4333 159.915 23.3 159.861 23.14H159.821C159.795 22.9 159.715 22.7 159.581 22.54C159.315 22.1133 158.901 21.9 158.341 21.9C157.808 21.9 157.408 22.1133 157.141 22.54H157.861C157.755 22.7 157.675 22.9 157.621 23.14H156.821C156.821 23.1933 156.808 23.26 156.781 23.34C156.781 23.3933 156.768 23.46 156.741 23.54H155.781C155.781 23.62 155.768 23.6867 155.741 23.74H156.741V23.94H155.781Z" fill="#0DCED5"/>
</svg>
