<svg width="70" height="70" viewBox="0 0 70 70" fill="none" xmlns="http://www.w3.org/2000/svg">
<circle cx="35" cy="35" r="35" fill="#0DCED5"/>
<path d="M31.5543 28.456H25.6863V29.176H28.0263V29.896H31.1223V30.436H27.6303V30.616H28.0623V31.336H27.1623V31.516H27.0903V31.696H26.1903V32.416H27.8823V32.596H27.9543V32.776H27.5583V33.316H27.3063V33.496H28.4943V34.216H25.6143V34.936H26.6583V35.476H27.2343V36.196H27.3063V36.916H27.0183V37.816H27.3423V38.176H27.1263V38.716H27.0903V38.896H26.8023V39.616H27.1263V39.976H27.0903V42.136H27.1263V42.856H27.7383V43.576H27.2343V43.936H27.0903V44.296H27.5223V45.016H26.9103V45.196H27.8103V45.556H28.1343V45.736H27.8463V46.276H27.7023V46.528C27.7023 46.576 27.6903 46.624 27.6663 46.672C27.6663 46.72 27.6543 46.768 27.6303 46.816H26.7303C26.7063 46.936 26.6343 47.056 26.5143 47.176H27.5223C27.4263 47.272 27.3543 47.332 27.3063 47.356H25.2543C25.1343 47.452 24.9663 47.5 24.7503 47.5H17.4063C17.1903 47.5 17.0223 47.452 16.9023 47.356H18.9543C18.8583 47.332 18.7863 47.272 18.7383 47.176H17.7303C17.6103 47.056 17.5383 46.936 17.5143 46.816H18.4503C18.4263 46.744 18.4143 46.648 18.4143 46.528V46.276H18.5583V45.736H18.8463V45.556H18.5223V45.196H17.6223V45.016H18.2343V44.296H17.8023V43.936H17.9463V43.576H18.4503V42.856H17.8383V42.136H17.8023V39.976H17.8383V39.616H17.5143V38.896H17.8023V38.716H17.8383V38.176H18.0543V37.816H17.7303V36.916H18.0183V36.196H17.9463V35.476H17.3703V34.936H16.3263V34.216H19.2063V33.496H18.0183V33.316H18.2703V32.776H18.6663V32.596H18.5943V32.416H16.9023V31.696H17.8023V31.516H17.8743V31.336H18.7743V30.616H18.3423V30.436H21.8343V29.896H18.7383V29.176H16.3983V28.456H22.2663V28.276H18.5943V27.736H18.5583V27.196H17.9103V27.016H20.1063V26.656H18.4503V25.936H18.5943V25.396H17.5863V24.676H17.7663V24.316H17.6583V23.956H17.9463V23.776H17.6223V23.272C17.6223 23.152 17.6463 23.02 17.6943 22.876H17.8743C18.0423 22.492 18.3423 22.3 18.7743 22.3H26.1183C26.5503 22.3 26.8503 22.492 27.0183 22.876H26.8383C26.8863 23.02 26.9103 23.152 26.9103 23.272V23.776H27.2343V23.956H26.9463V24.316H27.0543V24.676H26.8743V25.396H27.8823V25.936H27.7383V26.656H29.3943V27.016H27.1983V27.196H27.8463V27.736H27.8823V28.276H31.5543V28.456ZM53.2682 43.936H51.7922L51.4682 44.296H56.9762C56.9522 44.32 56.9282 44.344 56.9042 44.368C56.8802 44.392 56.8442 44.428 56.7962 44.476H48.3002C48.1802 44.596 48.0482 44.716 47.9042 44.836C47.7842 44.956 47.6522 45.076 47.5082 45.196H50.1362L49.6682 45.556H54.5642L54.2762 45.736H52.1522C52.1282 45.76 52.0802 45.784 52.0082 45.808C51.9602 45.832 51.9122 45.868 51.8642 45.916H49.4522L48.4442 46.456H49.8482C49.5362 46.6 49.2242 46.732 48.9122 46.852C48.6002 46.948 48.2762 47.056 47.9402 47.176H46.6442C45.8282 47.416 44.9402 47.596 43.9802 47.716H44.1602C43.7762 47.764 43.3802 47.8 42.9722 47.824C42.5642 47.848 42.1562 47.86 41.7482 47.86C41.2922 47.86 40.8362 47.848 40.3802 47.824C39.9482 47.8 39.5282 47.764 39.1202 47.716H38.9762C37.9442 47.596 37.0202 47.416 36.2042 47.176H37.5002C37.1402 47.056 36.8042 46.948 36.4922 46.852C36.1802 46.732 35.8682 46.6 35.5562 46.456H34.1522C33.9842 46.36 33.8162 46.276 33.6482 46.204C33.4802 46.108 33.3122 46.012 33.1442 45.916H35.5922L35.3042 45.736H37.4282C37.4042 45.688 37.3682 45.652 37.3202 45.628C37.2722 45.604 37.2242 45.58 37.1762 45.556H32.2802C32.1842 45.508 32.1002 45.448 32.0282 45.376C31.9562 45.304 31.8842 45.244 31.8122 45.196H29.1482C29.0282 45.076 28.9082 44.956 28.7882 44.836C28.6442 44.716 28.5122 44.596 28.3922 44.476H36.8882C36.8642 44.428 36.8402 44.392 36.8162 44.368C36.7922 44.344 36.7682 44.32 36.7442 44.296H31.2362C31.1402 44.2 31.0442 44.08 30.9482 43.936H32.4242C32.4002 43.888 32.3762 43.852 32.3522 43.828C32.3282 43.804 32.3042 43.78 32.2802 43.756H36.7802L36.4562 43.216H34.2242L34.1162 43.036H29.0402C29.0162 42.94 28.9802 42.856 28.9322 42.784C28.8842 42.688 28.8362 42.592 28.7882 42.496H31.2002L30.9842 41.956H30.1202L30.0482 41.776H30.4442C30.4202 41.68 30.3962 41.596 30.3722 41.524C30.3482 41.428 30.3242 41.332 30.3002 41.236H30.0122C30.0122 41.14 30.0002 41.056 29.9762 40.984C29.9762 40.888 29.9642 40.792 29.9402 40.696H29.6522C29.6522 40.6 29.6402 40.516 29.6162 40.444C29.6162 40.372 29.6162 40.288 29.6162 40.192V40.156H29.5802C29.5802 40.108 29.5802 40.072 29.5802 40.048C29.6042 40.024 29.6162 40 29.6162 39.976H30.4442C30.5642 39.592 30.8162 39.4 31.2002 39.4H38.0402C38.4242 39.4 38.7122 39.448 38.9042 39.544C39.0962 39.64 39.3122 39.784 39.5522 39.976H38.7242L38.7602 40.012C38.8082 40.036 38.8442 40.06 38.8682 40.084C38.9162 40.108 38.9522 40.132 38.9762 40.156H39.0122C39.3242 40.396 39.7082 40.576 40.1642 40.696H40.4882C40.8002 40.792 41.2202 40.84 41.7482 40.84C42.0602 40.84 42.3482 40.828 42.6122 40.804C42.8762 40.78 43.1042 40.744 43.2962 40.696H43.1882C43.7402 40.576 44.0882 40.396 44.2322 40.156H44.1602C44.2082 40.06 44.2322 40 44.2322 39.976H44.5922L44.6282 39.832C44.6282 39.616 44.5442 39.424 44.3762 39.256H44.0882C43.8722 39.04 43.4882 38.86 42.9362 38.716H42.8282C42.6122 38.644 42.3602 38.584 42.0722 38.536C41.7842 38.464 41.4482 38.404 41.0642 38.356H40.8482L39.3722 38.14C39.2042 38.116 39.0362 38.092 38.8682 38.068C38.7242 38.044 38.5682 38.02 38.4002 37.996C37.4162 37.828 36.4682 37.588 35.5562 37.276H34.9082C34.5722 37.156 34.2602 37.036 33.9722 36.916H33.4682C33.3482 36.868 33.2282 36.82 33.1082 36.772C32.9882 36.7 32.8682 36.628 32.7482 36.556H29.6162C29.4482 36.46 29.2922 36.376 29.1482 36.304C29.0042 36.208 28.8602 36.112 28.7162 36.016H35.4122C35.2922 35.92 35.1722 35.836 35.0522 35.764C34.9562 35.668 34.8482 35.572 34.7282 35.476H27.5642C27.4922 35.428 27.4322 35.368 27.3842 35.296C27.3122 35.224 27.2522 35.164 27.2042 35.116H29.0762C28.8602 34.876 28.6562 34.636 28.4642 34.396H29.0042L28.7882 34.036H25.3322C25.3082 33.988 25.2842 33.952 25.2602 33.928C25.2362 33.904 25.2242 33.88 25.2242 33.856H33.4322C33.3842 33.76 33.3362 33.676 33.2882 33.604C33.2402 33.508 33.1922 33.412 33.1442 33.316H26.8442L26.6282 32.776H31.7042L31.6322 32.596H30.1202L30.0482 32.416H30.7682C30.7682 32.368 30.7562 32.332 30.7322 32.308C30.7322 32.284 30.7322 32.26 30.7322 32.236H30.5882L30.4802 31.876H30.2642L30.2282 31.516H30.1562V31.336H29.0042C28.9802 31.288 28.9682 31.228 28.9682 31.156C28.9682 31.084 28.9682 31.024 28.9682 30.976H27.9242L27.8882 30.616H31.9922C31.9682 30.568 31.9562 30.508 31.9562 30.436C31.9562 30.364 31.9562 30.304 31.9562 30.256H32.5322V30.22C32.5322 30.1 32.5322 29.98 32.5322 29.86C32.5322 29.74 32.5442 29.632 32.5682 29.536H31.0202C31.0442 29.44 31.0562 29.356 31.0562 29.284C31.0562 29.188 31.0682 29.092 31.0922 28.996H33.6122C33.6122 28.948 33.6122 28.912 33.6122 28.888C33.6362 28.864 33.6482 28.84 33.6482 28.816H31.0922C31.1402 28.672 31.1642 28.552 31.1642 28.456H30.7682L30.8762 28.096H30.2642C30.3362 27.832 30.4202 27.592 30.5162 27.376H30.8042L30.9482 27.016H31.3442L31.6682 26.476H31.3082C31.3802 26.38 31.4402 26.296 31.4882 26.224C31.5602 26.128 31.6202 26.032 31.6682 25.936H31.3802L31.8122 25.396H32.5682C32.5922 25.348 32.6162 25.312 32.6402 25.288C32.6642 25.264 32.6882 25.24 32.7122 25.216H31.7042C31.8002 25.12 31.8962 25.036 31.9922 24.964C32.0882 24.868 32.1842 24.772 32.2802 24.676H32.8562C33.0002 24.556 33.1442 24.436 33.2882 24.316C33.4322 24.172 33.5882 24.052 33.7562 23.956H34.4042C34.5482 23.86 34.6922 23.776 34.8362 23.704C34.9802 23.608 35.1362 23.512 35.3042 23.416H35.1962C35.2442 23.368 35.3042 23.332 35.3762 23.308C35.4482 23.284 35.5082 23.26 35.5562 23.236H35.0522C35.1002 23.188 35.1602 23.152 35.2322 23.128C35.3042 23.104 35.3762 23.08 35.4482 23.056H35.0882C35.4242 22.912 35.7722 22.78 36.1322 22.66C36.5162 22.54 36.9002 22.432 37.2842 22.336H37.8242C38.3762 22.216 38.9522 22.12 39.5522 22.048C40.1762 21.976 40.8242 21.94 41.4962 21.94C42.7682 21.94 43.9682 22.072 45.0962 22.336H44.5922C45.3602 22.504 46.1042 22.744 46.8242 23.056H47.1482C47.2202 23.08 47.2922 23.104 47.3642 23.128C47.4362 23.152 47.5082 23.188 47.5802 23.236H48.0842C48.1322 23.26 48.1922 23.284 48.2642 23.308C48.3362 23.332 48.3962 23.368 48.4442 23.416H48.5522C48.7202 23.512 48.8762 23.608 49.0202 23.704C49.1882 23.776 49.3442 23.86 49.4882 23.956H48.8762C49.0682 24.052 49.2362 24.172 49.3802 24.316C49.5482 24.436 49.7042 24.556 49.8482 24.676H49.3082L49.8842 25.216H50.8922L51.0722 25.396H50.3162C50.4122 25.492 50.4962 25.588 50.5682 25.684C50.6642 25.756 50.7482 25.84 50.8202 25.936H51.1082L51.5402 26.476H51.8642L52.1882 27.016H51.7922C51.8642 27.136 51.9242 27.256 51.9722 27.376H51.6842C51.7562 27.496 51.8162 27.616 51.8642 27.736C51.9122 27.856 51.9602 27.976 52.0082 28.096H52.6202C52.6682 28.24 52.6922 28.36 52.6922 28.456H53.1242C53.1482 28.504 53.1602 28.564 53.1602 28.636C53.1602 28.708 53.1722 28.768 53.1962 28.816H55.7522V28.996H53.4482C53.4722 29.092 53.4842 29.224 53.4842 29.392V29.536H52.1522C52.0562 29.968 51.8162 30.184 51.4322 30.184H44.2322C43.8962 30.184 43.6202 30.136 43.4042 30.04C43.2122 29.944 43.0082 29.8 42.7922 29.608L42.6842 29.536H44.0162C43.8962 29.44 43.7282 29.344 43.5122 29.248C43.2962 29.128 43.0202 29.044 42.6842 28.996H41.3882C40.8842 29.068 40.5362 29.248 40.3442 29.536H41.8922C41.8202 29.68 41.7842 29.824 41.7842 29.968C41.7842 30.088 41.7962 30.184 41.8202 30.256H41.2802C41.3042 30.376 41.4002 30.496 41.5682 30.616H37.5002C37.6442 30.736 37.8962 30.856 38.2562 30.976H39.3002C39.4922 31.048 39.7202 31.12 39.9842 31.192C40.2722 31.24 40.5722 31.288 40.8842 31.336H42.0362C42.2282 31.36 42.4322 31.384 42.6482 31.408C42.8642 31.432 43.0922 31.468 43.3322 31.516H43.3682C43.7762 31.564 44.1722 31.624 44.5562 31.696C44.9402 31.744 45.3002 31.804 45.6362 31.876H45.8522C46.1402 31.924 46.4042 31.984 46.6442 32.056C46.9082 32.104 47.1602 32.164 47.4002 32.236H47.5442C47.6642 32.26 47.7722 32.284 47.8682 32.308C47.9642 32.332 48.0602 32.368 48.1562 32.416H47.4722C47.5682 32.44 47.6522 32.464 47.7242 32.488C47.8202 32.512 47.9162 32.548 48.0122 32.596H49.5242C49.5962 32.62 49.6682 32.644 49.7402 32.668C49.8362 32.692 49.9202 32.728 49.9922 32.776H44.9162C45.3962 32.968 45.7802 33.148 46.0682 33.316H52.3682C52.5122 33.412 52.6562 33.508 52.8002 33.604C52.9442 33.676 53.0762 33.76 53.1962 33.856H44.9882C45.0362 33.88 45.0842 33.904 45.1322 33.928C45.1802 33.952 45.2162 33.988 45.2402 34.036H48.6962C48.7682 34.084 48.8402 34.144 48.9122 34.216C48.9842 34.288 49.0442 34.348 49.0922 34.396H48.5522C48.7922 34.612 48.9962 34.852 49.1642 35.116H47.2922C47.3402 35.164 47.3882 35.224 47.4362 35.296C47.4842 35.368 47.5202 35.428 47.5442 35.476H54.6722L54.9962 36.016H48.3002C48.3482 36.112 48.3962 36.208 48.4442 36.304C48.4922 36.376 48.5282 36.46 48.5522 36.556H51.6482L51.7562 36.916H52.2602L52.3682 37.276H53.0162C53.0642 37.372 53.0882 37.492 53.0882 37.636C53.1122 37.756 53.1362 37.876 53.1602 37.996L53.1962 38.356H53.4122C53.4362 38.404 53.4482 38.464 53.4482 38.536C53.4482 38.608 53.4482 38.668 53.4482 38.716H53.5562V39.256H53.8802V39.364C53.8802 39.46 53.8682 39.556 53.8442 39.652C53.8442 39.748 53.8442 39.856 53.8442 39.976H53.4842V40.156H53.5562C53.5562 40.252 53.5442 40.348 53.5202 40.444C53.5202 40.516 53.5082 40.6 53.4842 40.696H53.5922L53.4842 41.236H53.7722C53.7482 41.332 53.7242 41.428 53.7002 41.524C53.6762 41.596 53.6402 41.68 53.5922 41.776H53.1962C53.1962 41.8 53.1842 41.824 53.1602 41.848C53.1602 41.872 53.1602 41.908 53.1602 41.956H54.0242L53.8082 42.496H51.3962C51.3722 42.592 51.3242 42.688 51.2522 42.784C51.2042 42.856 51.1562 42.94 51.1082 43.036H56.1842L56.0762 43.216H58.2722C58.2242 43.312 58.1642 43.408 58.0922 43.504C58.0442 43.576 57.9842 43.66 57.9122 43.756H53.4122C53.3882 43.78 53.3642 43.804 53.3402 43.828C53.3162 43.852 53.2922 43.888 53.2682 43.936ZM43.9082 28.996H44.9882C44.9162 28.972 44.8322 28.96 44.7362 28.96C44.6642 28.96 44.5802 28.96 44.4842 28.96C44.3882 28.96 44.2922 28.96 44.1962 28.96C44.1002 28.96 44.0042 28.972 43.9082 28.996Z" fill="#0B1234"/>
</svg>
