<svg width="38" height="38" viewBox="0 0 38 38" fill="none" xmlns="http://www.w3.org/2000/svg">
<g clip-path="url(#clip0_11_560)">
<path d="M19 3.16662C21.1003 3.17351 23.1784 3.59687 25.114 4.4122C27.0496 5.22754 28.8043 6.41865 30.2765 7.91662H25.3333C24.9134 7.91662 24.5107 8.08343 24.2137 8.38036C23.9168 8.6773 23.75 9.08002 23.75 9.49995C23.75 9.91987 23.9168 10.3226 24.2137 10.6195C24.5107 10.9165 24.9134 11.0833 25.3333 11.0833H31.8931C32.6728 11.0829 33.4204 10.773 33.9717 10.2216C34.523 9.67033 34.8329 8.92271 34.8333 8.14303V1.58328C34.8333 1.16336 34.6665 0.760629 34.3696 0.463696C34.0727 0.166764 33.6699 -5.13379e-05 33.25 -5.13379e-05C32.8301 -5.13379e-05 32.4273 0.166764 32.1304 0.463696C31.8335 0.760629 31.6667 1.16336 31.6667 1.58328V4.87345C29.0497 2.51658 25.8283 0.934764 22.3632 0.305135C18.898 -0.324495 15.3261 0.0229259 12.0472 1.30849C8.76841 2.59405 5.91219 4.767 3.79843 7.58399C1.68468 10.401 0.396849 13.7508 0.0791662 17.2583C0.0587149 17.4788 0.0844162 17.7011 0.154633 17.9111C0.224849 18.1211 0.338041 18.3142 0.486996 18.4781C0.63595 18.6419 0.817402 18.7729 1.01979 18.8628C1.22218 18.9526 1.44106 18.9994 1.6625 18.9999C2.04976 19.0049 2.42493 18.8651 2.71456 18.608C3.00419 18.3509 3.18743 17.9949 3.22842 17.6098C3.58089 13.6685 5.39438 10.0014 8.31263 7.32894C11.2309 4.65649 15.043 3.17183 19 3.16662Z" fill="#0B1234"/>
<path d="M36.3391 19C35.9518 18.9951 35.5767 19.1348 35.287 19.392C34.9974 19.6491 34.8142 20.0051 34.7732 20.3902C34.5114 23.4036 33.3908 26.2788 31.5442 28.6745C29.6976 31.0702 27.2026 32.886 24.3551 33.9064C21.5076 34.9268 18.4271 35.109 15.4792 34.4313C12.5313 33.7537 9.83961 32.2447 7.7235 30.0833H12.6667C13.0866 30.0833 13.4893 29.9165 13.7863 29.6196C14.0832 29.3227 14.25 28.9199 14.25 28.5C14.25 28.0801 14.0832 27.6773 13.7863 27.3804C13.4893 27.0835 13.0866 26.9167 12.6667 26.9167H6.10691C5.72074 26.9165 5.3383 26.9924 4.98148 27.1401C4.62466 27.2877 4.30045 27.5043 4.02738 27.7774C3.75431 28.0505 3.53774 28.3747 3.39005 28.7315C3.24237 29.0883 3.16646 29.4707 3.16666 29.8569V36.4167C3.16666 36.8366 3.33348 37.2393 3.63041 37.5363C3.92734 37.8332 4.33007 38 4.75 38C5.16992 38 5.57265 37.8332 5.86958 37.5363C6.16652 37.2393 6.33333 36.8366 6.33333 36.4167V33.1265C8.95031 35.4834 12.1717 37.0652 15.6368 37.6948C19.102 38.3244 22.6739 37.977 25.9528 36.6915C29.2316 35.4059 32.0878 33.2329 34.2016 30.416C36.3153 27.599 37.6032 24.2492 37.9208 20.7417C37.9413 20.5212 37.9156 20.2988 37.8454 20.0888C37.7752 19.8788 37.662 19.6857 37.513 19.5219C37.364 19.358 37.1826 19.227 36.9802 19.1372C36.7778 19.0473 36.5605 19.0006 36.3391 19Z" fill="#0B1234"/>
</g>
<defs>
<clipPath id="clip0_11_560">
<rect width="38" height="38" fill="white"/>
</clipPath>
</defs>
</svg>
