<svg width="659" height="70" viewBox="0 0 659 70" fill="none" xmlns="http://www.w3.org/2000/svg">
<circle cx="235" cy="35" r="35" fill="#0DCED5"/>
<path d="M231.554 28.456H225.686V29.176H228.026V29.896H231.122V30.436H227.63V30.616H228.062V31.336H227.162V31.516H227.09V31.696H226.19V32.416H227.882V32.596H227.954V32.776H227.558V33.316H227.306V33.496H228.494V34.216H225.614V34.936H226.658V35.476H227.234V36.196H227.306V36.916H227.018V37.816H227.342V38.176H227.126V38.716H227.09V38.896H226.802V39.616H227.126V39.976H227.09V42.136H227.126V42.856H227.738V43.576H227.234V43.936H227.09V44.296H227.522V45.016H226.91V45.196H227.81V45.556H228.134V45.736H227.846V46.276H227.702V46.528C227.702 46.576 227.69 46.624 227.666 46.672C227.666 46.72 227.654 46.768 227.63 46.816H226.73C226.706 46.936 226.634 47.056 226.514 47.176H227.522C227.426 47.272 227.354 47.332 227.306 47.356H225.254C225.134 47.452 224.966 47.5 224.75 47.5H217.406C217.19 47.5 217.022 47.452 216.902 47.356H218.954C218.858 47.332 218.786 47.272 218.738 47.176H217.73C217.61 47.056 217.538 46.936 217.514 46.816H218.45C218.426 46.744 218.414 46.648 218.414 46.528V46.276H218.558V45.736H218.846V45.556H218.522V45.196H217.622V45.016H218.234V44.296H217.802V43.936H217.946V43.576H218.45V42.856H217.838V42.136H217.802V39.976H217.838V39.616H217.514V38.896H217.802V38.716H217.838V38.176H218.054V37.816H217.73V36.916H218.018V36.196H217.946V35.476H217.37V34.936H216.326V34.216H219.206V33.496H218.018V33.316H218.27V32.776H218.666V32.596H218.594V32.416H216.902V31.696H217.802V31.516H217.874V31.336H218.774V30.616H218.342V30.436H221.834V29.896H218.738V29.176H216.398V28.456H222.266V28.276H218.594V27.736H218.558V27.196H217.91V27.016H220.106V26.656H218.45V25.936H218.594V25.396H217.586V24.676H217.766V24.316H217.658V23.956H217.946V23.776H217.622V23.272C217.622 23.152 217.646 23.02 217.694 22.876H217.874C218.042 22.492 218.342 22.3 218.774 22.3H226.118C226.55 22.3 226.85 22.492 227.018 22.876H226.838C226.886 23.02 226.91 23.152 226.91 23.272V23.776H227.234V23.956H226.946V24.316H227.054V24.676H226.874V25.396H227.882V25.936H227.738V26.656H229.394V27.016H227.198V27.196H227.846V27.736H227.882V28.276H231.554V28.456ZM253.268 43.936H251.792L251.468 44.296H256.976C256.952 44.32 256.928 44.344 256.904 44.368C256.88 44.392 256.844 44.428 256.796 44.476H248.3C248.18 44.596 248.048 44.716 247.904 44.836C247.784 44.956 247.652 45.076 247.508 45.196H250.136L249.668 45.556H254.564L254.276 45.736H252.152C252.128 45.76 252.08 45.784 252.008 45.808C251.96 45.832 251.912 45.868 251.864 45.916H249.452L248.444 46.456H249.848C249.536 46.6 249.224 46.732 248.912 46.852C248.6 46.948 248.276 47.056 247.94 47.176H246.644C245.828 47.416 244.94 47.596 243.98 47.716H244.16C243.776 47.764 243.38 47.8 242.972 47.824C242.564 47.848 242.156 47.86 241.748 47.86C241.292 47.86 240.836 47.848 240.38 47.824C239.948 47.8 239.528 47.764 239.12 47.716H238.976C237.944 47.596 237.02 47.416 236.204 47.176H237.5C237.14 47.056 236.804 46.948 236.492 46.852C236.18 46.732 235.868 46.6 235.556 46.456H234.152C233.984 46.36 233.816 46.276 233.648 46.204C233.48 46.108 233.312 46.012 233.144 45.916H235.592L235.304 45.736H237.428C237.404 45.688 237.368 45.652 237.32 45.628C237.272 45.604 237.224 45.58 237.176 45.556H232.28C232.184 45.508 232.1 45.448 232.028 45.376C231.956 45.304 231.884 45.244 231.812 45.196H229.148C229.028 45.076 228.908 44.956 228.788 44.836C228.644 44.716 228.512 44.596 228.392 44.476H236.888C236.864 44.428 236.84 44.392 236.816 44.368C236.792 44.344 236.768 44.32 236.744 44.296H231.236C231.14 44.2 231.044 44.08 230.948 43.936H232.424C232.4 43.888 232.376 43.852 232.352 43.828C232.328 43.804 232.304 43.78 232.28 43.756H236.78L236.456 43.216H234.224L234.116 43.036H229.04C229.016 42.94 228.98 42.856 228.932 42.784C228.884 42.688 228.836 42.592 228.788 42.496H231.2L230.984 41.956H230.12L230.048 41.776H230.444C230.42 41.68 230.396 41.596 230.372 41.524C230.348 41.428 230.324 41.332 230.3 41.236H230.012C230.012 41.14 230 41.056 229.976 40.984C229.976 40.888 229.964 40.792 229.94 40.696H229.652C229.652 40.6 229.64 40.516 229.616 40.444C229.616 40.372 229.616 40.288 229.616 40.192V40.156H229.58C229.58 40.108 229.58 40.072 229.58 40.048C229.604 40.024 229.616 40 229.616 39.976H230.444C230.564 39.592 230.816 39.4 231.2 39.4H238.04C238.424 39.4 238.712 39.448 238.904 39.544C239.096 39.64 239.312 39.784 239.552 39.976H238.724L238.76 40.012C238.808 40.036 238.844 40.06 238.868 40.084C238.916 40.108 238.952 40.132 238.976 40.156H239.012C239.324 40.396 239.708 40.576 240.164 40.696H240.488C240.8 40.792 241.22 40.84 241.748 40.84C242.06 40.84 242.348 40.828 242.612 40.804C242.876 40.78 243.104 40.744 243.296 40.696H243.188C243.74 40.576 244.088 40.396 244.232 40.156H244.16C244.208 40.06 244.232 40 244.232 39.976H244.592L244.628 39.832C244.628 39.616 244.544 39.424 244.376 39.256H244.088C243.872 39.04 243.488 38.86 242.936 38.716H242.828C242.612 38.644 242.36 38.584 242.072 38.536C241.784 38.464 241.448 38.404 241.064 38.356H240.848L239.372 38.14C239.204 38.116 239.036 38.092 238.868 38.068C238.724 38.044 238.568 38.02 238.4 37.996C237.416 37.828 236.468 37.588 235.556 37.276H234.908C234.572 37.156 234.26 37.036 233.972 36.916H233.468C233.348 36.868 233.228 36.82 233.108 36.772C232.988 36.7 232.868 36.628 232.748 36.556H229.616C229.448 36.46 229.292 36.376 229.148 36.304C229.004 36.208 228.86 36.112 228.716 36.016H235.412C235.292 35.92 235.172 35.836 235.052 35.764C234.956 35.668 234.848 35.572 234.728 35.476H227.564C227.492 35.428 227.432 35.368 227.384 35.296C227.312 35.224 227.252 35.164 227.204 35.116H229.076C228.86 34.876 228.656 34.636 228.464 34.396H229.004L228.788 34.036H225.332C225.308 33.988 225.284 33.952 225.26 33.928C225.236 33.904 225.224 33.88 225.224 33.856H233.432C233.384 33.76 233.336 33.676 233.288 33.604C233.24 33.508 233.192 33.412 233.144 33.316H226.844L226.628 32.776H231.704L231.632 32.596H230.12L230.048 32.416H230.768C230.768 32.368 230.756 32.332 230.732 32.308C230.732 32.284 230.732 32.26 230.732 32.236H230.588L230.48 31.876H230.264L230.228 31.516H230.156V31.336H229.004C228.98 31.288 228.968 31.228 228.968 31.156C228.968 31.084 228.968 31.024 228.968 30.976H227.924L227.888 30.616H231.992C231.968 30.568 231.956 30.508 231.956 30.436C231.956 30.364 231.956 30.304 231.956 30.256H232.532V30.22C232.532 30.1 232.532 29.98 232.532 29.86C232.532 29.74 232.544 29.632 232.568 29.536H231.02C231.044 29.44 231.056 29.356 231.056 29.284C231.056 29.188 231.068 29.092 231.092 28.996H233.612C233.612 28.948 233.612 28.912 233.612 28.888C233.636 28.864 233.648 28.84 233.648 28.816H231.092C231.14 28.672 231.164 28.552 231.164 28.456H230.768L230.876 28.096H230.264C230.336 27.832 230.42 27.592 230.516 27.376H230.804L230.948 27.016H231.344L231.668 26.476H231.308C231.38 26.38 231.44 26.296 231.488 26.224C231.56 26.128 231.62 26.032 231.668 25.936H231.38L231.812 25.396H232.568C232.592 25.348 232.616 25.312 232.64 25.288C232.664 25.264 232.688 25.24 232.712 25.216H231.704C231.8 25.12 231.896 25.036 231.992 24.964C232.088 24.868 232.184 24.772 232.28 24.676H232.856C233 24.556 233.144 24.436 233.288 24.316C233.432 24.172 233.588 24.052 233.756 23.956H234.404C234.548 23.86 234.692 23.776 234.836 23.704C234.98 23.608 235.136 23.512 235.304 23.416H235.196C235.244 23.368 235.304 23.332 235.376 23.308C235.448 23.284 235.508 23.26 235.556 23.236H235.052C235.1 23.188 235.16 23.152 235.232 23.128C235.304 23.104 235.376 23.08 235.448 23.056H235.088C235.424 22.912 235.772 22.78 236.132 22.66C236.516 22.54 236.9 22.432 237.284 22.336H237.824C238.376 22.216 238.952 22.12 239.552 22.048C240.176 21.976 240.824 21.94 241.496 21.94C242.768 21.94 243.968 22.072 245.096 22.336H244.592C245.36 22.504 246.104 22.744 246.824 23.056H247.148C247.22 23.08 247.292 23.104 247.364 23.128C247.436 23.152 247.508 23.188 247.58 23.236H248.084C248.132 23.26 248.192 23.284 248.264 23.308C248.336 23.332 248.396 23.368 248.444 23.416H248.552C248.72 23.512 248.876 23.608 249.02 23.704C249.188 23.776 249.344 23.86 249.488 23.956H248.876C249.068 24.052 249.236 24.172 249.38 24.316C249.548 24.436 249.704 24.556 249.848 24.676H249.308L249.884 25.216H250.892L251.072 25.396H250.316C250.412 25.492 250.496 25.588 250.568 25.684C250.664 25.756 250.748 25.84 250.82 25.936H251.108L251.54 26.476H251.864L252.188 27.016H251.792C251.864 27.136 251.924 27.256 251.972 27.376H251.684C251.756 27.496 251.816 27.616 251.864 27.736C251.912 27.856 251.96 27.976 252.008 28.096H252.62C252.668 28.24 252.692 28.36 252.692 28.456H253.124C253.148 28.504 253.16 28.564 253.16 28.636C253.16 28.708 253.172 28.768 253.196 28.816H255.752V28.996H253.448C253.472 29.092 253.484 29.224 253.484 29.392V29.536H252.152C252.056 29.968 251.816 30.184 251.432 30.184H244.232C243.896 30.184 243.62 30.136 243.404 30.04C243.212 29.944 243.008 29.8 242.792 29.608L242.684 29.536H244.016C243.896 29.44 243.728 29.344 243.512 29.248C243.296 29.128 243.02 29.044 242.684 28.996H241.388C240.884 29.068 240.536 29.248 240.344 29.536H241.892C241.82 29.68 241.784 29.824 241.784 29.968C241.784 30.088 241.796 30.184 241.82 30.256H241.28C241.304 30.376 241.4 30.496 241.568 30.616H237.5C237.644 30.736 237.896 30.856 238.256 30.976H239.3C239.492 31.048 239.72 31.12 239.984 31.192C240.272 31.24 240.572 31.288 240.884 31.336H242.036C242.228 31.36 242.432 31.384 242.648 31.408C242.864 31.432 243.092 31.468 243.332 31.516H243.368C243.776 31.564 244.172 31.624 244.556 31.696C244.94 31.744 245.3 31.804 245.636 31.876H245.852C246.14 31.924 246.404 31.984 246.644 32.056C246.908 32.104 247.16 32.164 247.4 32.236H247.544C247.664 32.26 247.772 32.284 247.868 32.308C247.964 32.332 248.06 32.368 248.156 32.416H247.472C247.568 32.44 247.652 32.464 247.724 32.488C247.82 32.512 247.916 32.548 248.012 32.596H249.524C249.596 32.62 249.668 32.644 249.74 32.668C249.836 32.692 249.92 32.728 249.992 32.776H244.916C245.396 32.968 245.78 33.148 246.068 33.316H252.368C252.512 33.412 252.656 33.508 252.8 33.604C252.944 33.676 253.076 33.76 253.196 33.856H244.988C245.036 33.88 245.084 33.904 245.132 33.928C245.18 33.952 245.216 33.988 245.24 34.036H248.696C248.768 34.084 248.84 34.144 248.912 34.216C248.984 34.288 249.044 34.348 249.092 34.396H248.552C248.792 34.612 248.996 34.852 249.164 35.116H247.292C247.34 35.164 247.388 35.224 247.436 35.296C247.484 35.368 247.52 35.428 247.544 35.476H254.672L254.996 36.016H248.3C248.348 36.112 248.396 36.208 248.444 36.304C248.492 36.376 248.528 36.46 248.552 36.556H251.648L251.756 36.916H252.26L252.368 37.276H253.016C253.064 37.372 253.088 37.492 253.088 37.636C253.112 37.756 253.136 37.876 253.16 37.996L253.196 38.356H253.412C253.436 38.404 253.448 38.464 253.448 38.536C253.448 38.608 253.448 38.668 253.448 38.716H253.556V39.256H253.88V39.364C253.88 39.46 253.868 39.556 253.844 39.652C253.844 39.748 253.844 39.856 253.844 39.976H253.484V40.156H253.556C253.556 40.252 253.544 40.348 253.52 40.444C253.52 40.516 253.508 40.6 253.484 40.696H253.592L253.484 41.236H253.772C253.748 41.332 253.724 41.428 253.7 41.524C253.676 41.596 253.64 41.68 253.592 41.776H253.196C253.196 41.8 253.184 41.824 253.16 41.848C253.16 41.872 253.16 41.908 253.16 41.956H254.024L253.808 42.496H251.396C251.372 42.592 251.324 42.688 251.252 42.784C251.204 42.856 251.156 42.94 251.108 43.036H256.184L256.076 43.216H258.272C258.224 43.312 258.164 43.408 258.092 43.504C258.044 43.576 257.984 43.66 257.912 43.756H253.412C253.388 43.78 253.364 43.804 253.34 43.828C253.316 43.852 253.292 43.888 253.268 43.936ZM243.908 28.996H244.988C244.916 28.972 244.832 28.96 244.736 28.96C244.664 28.96 244.58 28.96 244.484 28.96C244.388 28.96 244.292 28.96 244.196 28.96C244.1 28.96 244.004 28.972 243.908 28.996Z" fill="#0B1234"/>
<path d="M305.48 27.34H298.96V28.14H301.56V28.94H305V29.54H301.12V29.74H301.6V30.54H300.6V30.74H300.52V30.94H299.52V31.74H301.4V31.94H301.48V32.14H301.04V32.74H300.76V32.94H302.08V33.74H298.88V34.54H300.04V35.14H300.68V35.94H300.76V36.74H300.44V37.74H300.8V38.14H300.56V38.74H300.52V38.94H300.2V39.74H300.56V40.14H300.52V42.54H300.56V43.34H301.24V44.14H300.68V44.54H300.52V44.94H301V45.74H300.32V45.94H301.32V46.34H301.68V46.54H301.36V47.14H301.2V47.42C301.2 47.4733 301.187 47.5267 301.16 47.58C301.16 47.6333 301.147 47.6867 301.12 47.74H300.12C300.093 47.8733 300.013 48.0067 299.88 48.14H301C300.893 48.2467 300.813 48.3133 300.76 48.34H298.48C298.347 48.4467 298.16 48.5 297.92 48.5H289.76C289.52 48.5 289.333 48.4467 289.2 48.34H291.48C291.373 48.3133 291.293 48.2467 291.24 48.14H290.12C289.987 48.0067 289.907 47.8733 289.88 47.74H290.92C290.893 47.66 290.88 47.5533 290.88 47.42V47.14H291.04V46.54H291.36V46.34H291V45.94H290V45.74H290.68V44.94H290.2V44.54H290.36V44.14H290.92V43.34H290.24V42.54H290.2V40.14H290.24V39.74H289.88V38.94H290.2V38.74H290.24V38.14H290.48V37.74H290.12V36.74H290.44V35.94H290.36V35.14H289.72V34.54H288.56V33.74H291.76V32.94H290.44V32.74H290.72V32.14H291.16V31.94H291.08V31.74H289.2V30.94H290.2V30.74H290.28V30.54H291.28V29.74H290.8V29.54H294.68V28.94H291.24V28.14H288.64V27.34H295.16V27.14H291.08V26.54H291.04V25.94H290.32V25.74H292.76V25.34H290.92V24.54H291.08V23.94H289.96V23.14H290.16V22.74H290.04V22.34H290.36V22.14H290V21.58C290 21.4467 290.027 21.3 290.08 21.14H290.28C290.467 20.7133 290.8 20.5 291.28 20.5H299.44C299.92 20.5 300.253 20.7133 300.44 21.14H300.24C300.293 21.3 300.32 21.4467 300.32 21.58V22.14H300.68V22.34H300.36V22.74H300.48V23.14H300.28V23.94H301.4V24.54H301.24V25.34H303.08V25.74H300.64V25.94H301.36V26.54H301.4V27.14H305.48V27.34ZM331.327 24.14H323.887V24.94H326.727V25.54H329.807V26.14H329.727V26.74H330.887V27.54H326.527V27.74H325.687V28.02C325.687 28.2067 325.647 28.38 325.567 28.54H328.407C328.22 28.9133 327.913 29.1 327.487 29.1H320.847V29.14H321.247V29.94H321.327V30.74H321.127V31.54H320.607V32.14H322.607V32.54H320.927V33.14H320.047V33.94H321.567V34.34H321.287V35.14H321.007V35.94H320.527V36.74H320.087V37.34H321.567V37.94H320.967V38.74H321.207V38.94H321.487V39.34H323.487V39.94H322.127V40.74H322.727V41.54H321.047V42.34H321.727V42.74H322.007V43.34H322.647V44.14H322.407V44.74H321.367V45.34H321.247V45.74H321.207V46.34H321.647V46.94H321.287V47.42C321.287 47.5533 321.273 47.66 321.247 47.74H320.847C320.767 48.0067 320.62 48.2067 320.407 48.34H320.487C320.353 48.4467 320.167 48.5 319.927 48.5H311.927C311.713 48.5 311.513 48.4467 311.327 48.34H311.247C311.06 48.2067 310.913 48.0067 310.807 47.74H311.167C311.14 47.66 311.127 47.5533 311.127 47.42V46.94H311.487V46.34H311.047V45.74H311.087V45.34H311.207V44.74H312.247V44.14H312.487V43.34H311.847V42.74H311.567V42.34H310.887V41.54H312.567V40.74H311.967V39.94H313.327V39.34H311.327V38.94H311.047V38.74H310.807V37.94H311.407V37.34H309.927V36.74H310.367V35.94H310.847V35.14H311.127V34.34H311.407V33.94H309.887V33.14H310.767V32.54H312.447V32.14H310.447V31.54H310.967V30.74H311.167V29.94H311.087V29.14H310.687V29.1H304.047C303.647 29.1 303.327 28.9133 303.087 28.54H300.247C300.22 28.46 300.193 28.38 300.167 28.3C300.113 28.22 300.087 28.1267 300.087 28.02V27.74H300.927V27.54H305.287V26.74H304.127V26.14H304.207V25.54H301.127V24.94H298.287V24.14H305.727V23.54H301.567V22.74H302.367V21.94H303.407V21.74H304.007V21.58C304.007 21.3133 304.087 21.1 304.247 20.94H303.367C303.58 20.6467 303.873 20.5 304.247 20.5H327.687C328.06 20.5 328.353 20.6467 328.567 20.94H329.407C329.54 21.1267 329.607 21.34 329.607 21.58V21.74H329.007V21.94H327.967V22.74H327.167V23.54H331.327V24.14ZM356.56 44.54H354.92L354.56 44.94H360.68C360.653 44.9667 360.626 44.9933 360.6 45.02C360.573 45.0467 360.533 45.0867 360.48 45.14H351.04C350.906 45.2733 350.76 45.4067 350.6 45.54C350.466 45.6733 350.32 45.8067 350.16 45.94H353.08L352.56 46.34H358L357.68 46.54H355.32C355.293 46.5667 355.24 46.5933 355.16 46.62C355.106 46.6467 355.053 46.6867 355 46.74H352.32L351.2 47.34H352.76C352.413 47.5 352.066 47.6467 351.72 47.78C351.373 47.8867 351.013 48.0067 350.64 48.14H349.2C348.293 48.4067 347.306 48.6067 346.24 48.74H346.44C346.013 48.7933 345.573 48.8333 345.12 48.86C344.666 48.8867 344.213 48.9 343.76 48.9C343.253 48.9 342.746 48.8867 342.24 48.86C341.76 48.8333 341.293 48.7933 340.84 48.74H340.68C339.533 48.6067 338.506 48.4067 337.6 48.14H339.04C338.64 48.0067 338.266 47.8867 337.92 47.78C337.573 47.6467 337.226 47.5 336.88 47.34H335.32C335.133 47.2333 334.946 47.14 334.76 47.06C334.573 46.9533 334.386 46.8467 334.2 46.74H336.92L336.6 46.54H338.96C338.933 46.4867 338.893 46.4467 338.84 46.42C338.786 46.3933 338.733 46.3667 338.68 46.34H333.24C333.133 46.2867 333.04 46.22 332.96 46.14C332.88 46.06 332.8 45.9933 332.72 45.94H329.76C329.626 45.8067 329.493 45.6733 329.36 45.54C329.2 45.4067 329.053 45.2733 328.92 45.14H338.36C338.333 45.0867 338.306 45.0467 338.28 45.02C338.253 44.9933 338.226 44.9667 338.2 44.94H332.08C331.973 44.8333 331.866 44.7 331.76 44.54H333.4C333.373 44.4867 333.346 44.4467 333.32 44.42C333.293 44.3933 333.266 44.3667 333.24 44.34H338.24L337.88 43.74H335.4L335.28 43.54H329.64C329.613 43.4333 329.573 43.34 329.52 43.26C329.466 43.1533 329.413 43.0467 329.36 42.94H332.04L331.8 42.34H330.84L330.76 42.14H331.2C331.173 42.0333 331.146 41.94 331.12 41.86C331.093 41.7533 331.066 41.6467 331.04 41.54H330.72C330.72 41.4333 330.706 41.34 330.68 41.26C330.68 41.1533 330.666 41.0467 330.64 40.94H330.32C330.32 40.8333 330.306 40.74 330.28 40.66C330.28 40.58 330.28 40.4867 330.28 40.38V40.34H330.24C330.24 40.2867 330.24 40.2467 330.24 40.22C330.266 40.1933 330.28 40.1667 330.28 40.14H331.2C331.333 39.7133 331.613 39.5 332.04 39.5H339.64C340.066 39.5 340.386 39.5533 340.6 39.66C340.813 39.7667 341.053 39.9267 341.32 40.14H340.4L340.44 40.18C340.493 40.2067 340.533 40.2333 340.56 40.26C340.613 40.2867 340.653 40.3133 340.68 40.34H340.72C341.066 40.6067 341.493 40.8067 342 40.94H342.36C342.706 41.0467 343.173 41.1 343.76 41.1C344.106 41.1 344.426 41.0867 344.72 41.06C345.013 41.0333 345.266 40.9933 345.48 40.94H345.36C345.973 40.8067 346.36 40.6067 346.52 40.34H346.44C346.493 40.2333 346.52 40.1667 346.52 40.14H346.92L346.96 39.98C346.96 39.74 346.866 39.5267 346.68 39.34H346.36C346.12 39.1 345.693 38.9 345.08 38.74H344.96C344.72 38.66 344.44 38.5933 344.12 38.54C343.8 38.46 343.426 38.3933 343 38.34H342.76L341.12 38.1C340.933 38.0733 340.746 38.0467 340.56 38.02C340.4 37.9933 340.226 37.9667 340.04 37.94C338.946 37.7533 337.893 37.4867 336.88 37.14H336.16C335.786 37.0067 335.44 36.8733 335.12 36.74H334.56C334.426 36.6867 334.293 36.6333 334.16 36.58C334.026 36.5 333.893 36.42 333.76 36.34H330.28C330.093 36.2333 329.92 36.14 329.76 36.06C329.6 35.9533 329.44 35.8467 329.28 35.74H336.72C336.586 35.6333 336.453 35.54 336.32 35.46C336.213 35.3533 336.093 35.2467 335.96 35.14H328C327.92 35.0867 327.853 35.02 327.8 34.94C327.72 34.86 327.653 34.7933 327.6 34.74H329.68C329.44 34.4733 329.213 34.2067 329 33.94H329.6L329.36 33.54H325.52C325.493 33.4867 325.466 33.4467 325.44 33.42C325.413 33.3933 325.4 33.3667 325.4 33.34H334.52C334.466 33.2333 334.413 33.14 334.36 33.06C334.306 32.9533 334.253 32.8467 334.2 32.74H327.2L326.96 32.14H332.6L332.52 31.94H330.84L330.76 31.74H331.56C331.56 31.6867 331.546 31.6467 331.52 31.62C331.52 31.5933 331.52 31.5667 331.52 31.54H331.36L331.24 31.14H331L330.96 30.74H330.88V30.54H329.6C329.573 30.4867 329.56 30.42 329.56 30.34C329.56 30.26 329.56 30.1933 329.56 30.14H328.4L328.36 29.74H332.92C332.893 29.6867 332.88 29.62 332.88 29.54C332.88 29.46 332.88 29.3933 332.88 29.34H333.52V29.3C333.52 29.1667 333.52 29.0333 333.52 28.9C333.52 28.7667 333.533 28.6467 333.56 28.54H331.84C331.866 28.4333 331.88 28.34 331.88 28.26C331.88 28.1533 331.893 28.0467 331.92 27.94H334.72C334.72 27.8867 334.72 27.8467 334.72 27.82C334.746 27.7933 334.76 27.7667 334.76 27.74H331.92C331.973 27.58 332 27.4467 332 27.34H331.56L331.68 26.94H331C331.08 26.6467 331.173 26.38 331.28 26.14H331.6L331.76 25.74H332.2L332.56 25.14H332.16C332.24 25.0333 332.306 24.94 332.36 24.86C332.44 24.7533 332.506 24.6467 332.56 24.54H332.24L332.72 23.94H333.56C333.586 23.8867 333.613 23.8467 333.64 23.82C333.666 23.7933 333.693 23.7667 333.72 23.74H332.6C332.706 23.6333 332.813 23.54 332.92 23.46C333.026 23.3533 333.133 23.2467 333.24 23.14H333.88C334.04 23.0067 334.2 22.8733 334.36 22.74C334.52 22.58 334.693 22.4467 334.88 22.34H335.6C335.76 22.2333 335.92 22.14 336.08 22.06C336.24 21.9533 336.413 21.8467 336.6 21.74H336.48C336.533 21.6867 336.6 21.6467 336.68 21.62C336.76 21.5933 336.826 21.5667 336.88 21.54H336.32C336.373 21.4867 336.44 21.4467 336.52 21.42C336.6 21.3933 336.68 21.3667 336.76 21.34H336.36C336.733 21.18 337.12 21.0333 337.52 20.9C337.946 20.7667 338.373 20.6467 338.8 20.54H339.4C340.013 20.4067 340.653 20.3 341.32 20.22C342.013 20.14 342.733 20.1 343.48 20.1C344.893 20.1 346.226 20.2467 347.48 20.54H346.92C347.773 20.7267 348.6 20.9933 349.4 21.34H349.76C349.84 21.3667 349.92 21.3933 350 21.42C350.08 21.4467 350.16 21.4867 350.24 21.54H350.8C350.853 21.5667 350.92 21.5933 351 21.62C351.08 21.6467 351.146 21.6867 351.2 21.74H351.32C351.506 21.8467 351.68 21.9533 351.84 22.06C352.026 22.14 352.2 22.2333 352.36 22.34H351.68C351.893 22.4467 352.08 22.58 352.24 22.74C352.426 22.8733 352.6 23.0067 352.76 23.14H352.16L352.8 23.74H353.92L354.12 23.94H353.28C353.386 24.0467 353.48 24.1533 353.56 24.26C353.666 24.34 353.76 24.4333 353.84 24.54H354.16L354.64 25.14H355L355.36 25.74H354.92C355 25.8733 355.066 26.0067 355.12 26.14H354.8C354.88 26.2733 354.946 26.4067 355 26.54C355.053 26.6733 355.106 26.8067 355.16 26.94H355.84C355.893 27.1 355.92 27.2333 355.92 27.34H356.4C356.426 27.3933 356.44 27.46 356.44 27.54C356.44 27.62 356.453 27.6867 356.48 27.74H359.32V27.94H356.76C356.786 28.0467 356.8 28.1933 356.8 28.38V28.54H355.32C355.213 29.02 354.946 29.26 354.52 29.26H346.52C346.146 29.26 345.84 29.2067 345.6 29.1C345.386 28.9933 345.16 28.8333 344.92 28.62L344.8 28.54H346.28C346.146 28.4333 345.96 28.3267 345.72 28.22C345.48 28.0867 345.173 27.9933 344.8 27.94H343.36C342.8 28.02 342.413 28.22 342.2 28.54H343.92C343.84 28.7 343.8 28.86 343.8 29.02C343.8 29.1533 343.813 29.26 343.84 29.34H343.24C343.266 29.4733 343.373 29.6067 343.56 29.74H339.04C339.2 29.8733 339.48 30.0067 339.88 30.14H341.04C341.253 30.22 341.506 30.3 341.8 30.38C342.12 30.4333 342.453 30.4867 342.8 30.54H344.08C344.293 30.5667 344.52 30.5933 344.76 30.62C345 30.6467 345.253 30.6867 345.52 30.74H345.56C346.013 30.7933 346.453 30.86 346.88 30.94C347.306 30.9933 347.706 31.06 348.08 31.14H348.32C348.64 31.1933 348.933 31.26 349.2 31.34C349.493 31.3933 349.773 31.46 350.04 31.54H350.2C350.333 31.5667 350.453 31.5933 350.56 31.62C350.666 31.6467 350.773 31.6867 350.88 31.74H350.12C350.226 31.7667 350.32 31.7933 350.4 31.82C350.506 31.8467 350.613 31.8867 350.72 31.94H352.4C352.48 31.9667 352.56 31.9933 352.64 32.02C352.746 32.0467 352.84 32.0867 352.92 32.14H347.28C347.813 32.3533 348.24 32.5533 348.56 32.74H355.56C355.72 32.8467 355.88 32.9533 356.04 33.06C356.2 33.14 356.346 33.2333 356.48 33.34H347.36C347.413 33.3667 347.466 33.3933 347.52 33.42C347.573 33.4467 347.613 33.4867 347.64 33.54H351.48C351.56 33.5933 351.64 33.66 351.72 33.74C351.8 33.82 351.866 33.8867 351.92 33.94H351.32C351.586 34.18 351.813 34.4467 352 34.74H349.92C349.973 34.7933 350.026 34.86 350.08 34.94C350.133 35.02 350.173 35.0867 350.2 35.14H358.12L358.48 35.74H351.04C351.093 35.8467 351.146 35.9533 351.2 36.06C351.253 36.14 351.293 36.2333 351.32 36.34H354.76L354.88 36.74H355.44L355.56 37.14H356.28C356.333 37.2467 356.36 37.38 356.36 37.54C356.386 37.6733 356.413 37.8067 356.44 37.94L356.48 38.34H356.72C356.746 38.3933 356.76 38.46 356.76 38.54C356.76 38.62 356.76 38.6867 356.76 38.74H356.88V39.34H357.24V39.46C357.24 39.5667 357.226 39.6733 357.2 39.78C357.2 39.8867 357.2 40.0067 357.2 40.14H356.8V40.34H356.88C356.88 40.4467 356.866 40.5533 356.84 40.66C356.84 40.74 356.826 40.8333 356.8 40.94H356.92L356.8 41.54H357.12C357.093 41.6467 357.066 41.7533 357.04 41.86C357.013 41.94 356.973 42.0333 356.92 42.14H356.48C356.48 42.1667 356.466 42.1933 356.44 42.22C356.44 42.2467 356.44 42.2867 356.44 42.34H357.4L357.16 42.94H354.48C354.453 43.0467 354.4 43.1533 354.32 43.26C354.266 43.34 354.213 43.4333 354.16 43.54H359.8L359.68 43.74H362.12C362.066 43.8467 362 43.9533 361.92 44.06C361.866 44.14 361.8 44.2333 361.72 44.34H356.72C356.693 44.3667 356.666 44.3933 356.64 44.42C356.613 44.4467 356.586 44.4867 356.56 44.54ZM346.16 27.94H347.36C347.28 27.9133 347.186 27.9 347.08 27.9C347 27.9 346.906 27.9 346.8 27.9C346.693 27.9 346.586 27.9 346.48 27.9C346.373 27.9 346.266 27.9133 346.16 27.94ZM385.25 35.94V36.14H380.81C380.837 36.1933 380.85 36.26 380.85 36.34C380.85 36.42 380.85 36.4867 380.85 36.54H378.73V37.14H380.97V37.74H382.81V38.34H381.93V38.54H384.53V39.34H382.73V39.7C382.73 39.8867 382.717 40.0333 382.69 40.14H383.21C383.21 40.2733 383.197 40.4067 383.17 40.54C383.17 40.6733 383.157 40.8067 383.13 40.94H381.41V41.14H382.73L382.69 41.54H381.21L381.09 42.14H382.41C382.384 42.2467 382.357 42.3533 382.33 42.46C382.33 42.54 382.304 42.6333 382.25 42.74H382.77L382.53 43.54H381.77C381.744 43.5933 381.717 43.66 381.69 43.74C381.69 43.82 381.664 43.8867 381.61 43.94H381.93C381.877 44.0467 381.824 44.1533 381.77 44.26C381.744 44.34 381.704 44.4333 381.65 44.54H381.61C381.504 44.8067 381.357 45.0733 381.17 45.34H380.61C380.504 45.4733 380.41 45.6067 380.33 45.74C380.25 45.8733 380.144 46.0067 380.01 46.14H380.41C380.384 46.1933 380.33 46.26 380.25 46.34L380.05 46.54H380.25C380.224 46.5667 380.197 46.5933 380.17 46.62C380.144 46.6467 380.104 46.6867 380.05 46.74H380.09C379.77 47.06 379.45 47.3267 379.13 47.54H379.05C378.757 47.7533 378.41 47.9533 378.01 48.14H377.69C376.597 48.6467 375.344 48.9 373.93 48.9C372.597 48.9 371.437 48.6467 370.45 48.14H370.77C370.477 48.0067 370.184 47.8067 369.89 47.54H369.93C369.637 47.2733 369.384 47.0067 369.17 46.74V47.54H369.01V48.14H369.25V48.94H368.17V49.74H368.77V50.34H369.89V50.74H369.13V50.94H365.73V51.74H366.69V51.94H369.85V52.74H368.13V53.34H368.49V54.14H368.93V54.94H368.77V55.14H368.93C368.877 55.5133 368.704 55.78 368.41 55.94H367.65C367.517 56.0467 367.33 56.1 367.09 56.1H359.69C359.424 56.1 359.224 56.0467 359.09 55.94H359.89C359.597 55.78 359.424 55.5133 359.37 55.14H359.21V54.94H359.37V54.14H358.93V53.34H358.57V52.74H360.29V51.94H357.13V51.74H356.17V50.94H359.57V50.74H360.33V50.34H359.21V49.74H358.61V48.94H359.69V48.14H359.45V47.54H359.61V46.74H359.85V46.54H359.17V46.34H359.21V46.14H358.77V45.34H359.37V43.94H359.09V43.54H359.85V42.74H359.33V42.14H358.05V41.54H360.01V41.14H358.89V40.94H359.45V40.14H358.49V39.34H360.33V38.54H362.13V38.34H360.29V37.74H358.53V37.14H356.37V36.54H361.53V36.14H355.61V35.94H358.45V35.54H359.85V35.14H359.69V34.34H359.37V33.94H358.49V33.14H359.13V32.34H361.45V31.74H357.77V31.34H362.33V30.54H363.37V30.34H361.45V29.94H361.73V29.34H360.41V29.14H365.57V28.94H362.01V28.78C362.01 28.5933 362.05 28.4467 362.13 28.34H360.25C360.437 27.9133 360.77 27.7 361.25 27.7H368.05C368.504 27.7 368.824 27.9133 369.01 28.34H370.73C371.024 28.1533 371.33 27.9933 371.65 27.86C371.997 27.7267 372.357 27.62 372.73 27.54H372.01C372.65 27.38 373.357 27.3 374.13 27.3C374.93 27.3 375.69 27.38 376.41 27.54H377.13C377.877 27.7 378.584 27.9667 379.25 28.34H381.57C381.864 28.4733 382.157 28.6733 382.45 28.94H382.25L382.49 29.14H384.53L384.77 29.34H380.57L381.13 29.94H382.69L382.97 30.34H384.89C384.917 30.3667 384.944 30.3933 384.97 30.42C384.997 30.4467 385.024 30.4867 385.05 30.54H384.01C384.197 30.7533 384.357 31.02 384.49 31.34H379.93C379.984 31.3933 380.024 31.46 380.05 31.54C380.077 31.62 380.104 31.6867 380.13 31.74H383.77C383.824 31.8467 383.877 31.9533 383.93 32.06C383.984 32.14 384.024 32.2333 384.05 32.34H381.73L381.97 33.14H381.33C381.384 33.2467 381.424 33.38 381.45 33.54C381.477 33.6733 381.504 33.8067 381.53 33.94H382.41C382.464 34.1 382.49 34.2333 382.49 34.34H382.81L382.93 35.14H382.17L382.21 35.54H377.33C377.357 35.5933 377.37 35.66 377.37 35.74C377.37 35.82 377.37 35.8867 377.37 35.94H385.25ZM370.89 28.34C370.944 28.42 370.97 28.5667 370.97 28.78V28.94H372.21C372.45 28.7267 372.73 28.5267 373.05 28.34H370.89ZM369.37 29.14V29.34H373.61C373.637 29.2867 373.664 29.2467 373.69 29.22C373.744 29.1933 373.784 29.1667 373.81 29.14H369.37ZM371.25 34.46C370.504 34.46 369.984 34.6867 369.69 35.14H369.81C369.784 35.1933 369.757 35.26 369.73 35.34C369.704 35.3933 369.664 35.46 369.61 35.54H372.21C372.184 35.4333 372.117 35.3 372.01 35.14H372.77C372.477 34.6867 371.97 34.46 371.25 34.46ZM375.41 36.14L375.33 35.94H365.29C365.29 35.9667 365.277 35.9933 365.25 36.02C365.25 36.0467 365.25 36.0867 365.25 36.14H375.41ZM371.21 37.74C371.21 37.6333 371.21 37.54 371.21 37.46C371.21 37.3533 371.197 37.2467 371.17 37.14H368.93V36.78C368.93 36.7267 368.917 36.6867 368.89 36.66C368.89 36.6067 368.89 36.5667 368.89 36.54H365.97C365.944 36.5933 365.93 36.6733 365.93 36.78V37.14H368.09C368.064 37.2467 368.05 37.3533 368.05 37.46C368.05 37.54 368.05 37.6333 368.05 37.74H369.81V38.34H371.61V38.54H369.81C369.81 38.6467 369.81 38.78 369.81 38.94C369.837 39.0733 369.85 39.2067 369.85 39.34H368.01C368.01 39.5 368.024 39.6333 368.05 39.74C368.05 39.9267 368.064 40.06 368.09 40.14H369.05C369.13 40.46 369.224 40.7267 369.33 40.94H368.77L368.89 41.14H370.05C370.21 41.3267 370.37 41.46 370.53 41.54H368.57C368.89 41.6733 369.237 41.74 369.61 41.74C369.957 41.74 370.29 41.6733 370.61 41.54H372.05C372.21 41.46 372.37 41.3267 372.53 41.14H371.21L371.33 40.94H373.05C373.157 40.7267 373.25 40.46 373.33 40.14H372.81L372.93 39.42V39.34H374.73C374.73 39.2067 374.73 39.0733 374.73 38.94C374.73 38.8067 374.744 38.6733 374.77 38.54H372.17V38.34H373.05V37.74H371.21ZM406.776 46.34V46.74H410.256V47.42C410.256 47.4733 410.242 47.5133 410.216 47.54H408.336C408.282 47.9133 408.109 48.18 407.816 48.34H407.456C407.322 48.4467 407.136 48.5 406.896 48.5H399.896C399.656 48.5 399.469 48.4467 399.336 48.34H399.656C399.389 48.1533 399.229 47.8867 399.176 47.54H401.096V46.74H399.496C399.362 46.8733 399.216 47.0067 399.056 47.14C398.922 47.2733 398.776 47.4067 398.616 47.54H398.176C397.696 47.8867 397.216 48.1533 396.736 48.34H395.456C395.269 48.42 395.056 48.4867 394.816 48.54C394.602 48.62 394.376 48.6867 394.136 48.74H393.816C393.549 48.7933 393.269 48.8333 392.976 48.86C392.709 48.8867 392.429 48.9 392.136 48.9C391.816 48.9 391.496 48.8867 391.176 48.86C390.882 48.8333 390.589 48.7933 390.296 48.74H390.616C390.349 48.6867 390.082 48.62 389.816 48.54C389.576 48.4867 389.336 48.42 389.096 48.34H390.336C389.749 48.1267 389.216 47.86 388.736 47.54H389.176C388.989 47.4067 388.816 47.2733 388.656 47.14C388.496 47.0067 388.336 46.8733 388.176 46.74H386.176L385.816 46.34C385.789 46.2867 385.749 46.22 385.696 46.14C385.642 46.06 385.589 45.9933 385.536 45.94H386.736C386.682 45.8333 386.616 45.74 386.536 45.66C386.482 45.5533 386.429 45.4467 386.376 45.34H386.016C386.016 45.3133 385.989 45.2467 385.936 45.14H385.576L385.456 44.94H385.496L385.256 44.34H385.056C385.029 44.2333 385.002 44.14 384.976 44.06C384.949 43.9533 384.922 43.8467 384.896 43.74H383.376C383.296 43.4467 383.256 43.18 383.256 42.94H384.576V42.54C384.576 42.4067 384.576 42.2733 384.576 42.14C384.576 41.98 384.589 41.8467 384.616 41.74H385.816C385.842 41.6067 385.869 41.4733 385.896 41.34C385.922 41.18 385.949 41.0467 385.976 40.94H384.856L384.936 40.74H384.976L385.056 40.54H385.016C385.069 40.4333 385.122 40.34 385.176 40.26C385.229 40.1533 385.269 40.0467 385.296 39.94H382.936L383.176 39.54H382.296C382.376 39.46 382.429 39.3933 382.456 39.34H383.896C383.949 39.2867 384.002 39.22 384.056 39.14C384.109 39.06 384.162 38.9933 384.216 38.94H384.296C384.562 38.62 384.842 38.3533 385.136 38.14H381.856C382.042 38.0067 382.242 37.8733 382.456 37.74C382.642 37.58 382.842 37.4467 383.056 37.34H385.256L385.616 37.14H386.736C386.789 37.0867 386.856 37.0467 386.936 37.02C387.016 36.9933 387.082 36.9667 387.136 36.94H387.616C388.096 36.7 388.616 36.5 389.176 36.34H391.616C391.989 36.2067 392.362 36.1 392.736 36.02C393.136 35.9133 393.549 35.82 393.976 35.74H392.976L393.616 35.62L397.856 34.94V34.74H399.896V34.54H396.056V34.34H398.336C398.336 34.2067 398.336 34.1 398.336 34.02C398.336 33.9133 398.322 33.82 398.296 33.74C398.269 33.5 398.176 33.3 398.016 33.14H397.336C397.309 33.1133 397.242 33.0733 397.136 33.02L396.856 33.14H396.176C396.069 33.22 395.962 33.3133 395.856 33.42C395.749 33.5 395.629 33.6067 395.496 33.74H395.536C395.242 34.0333 394.869 34.18 394.416 34.18H387.616C387.216 34.18 386.949 34.0333 386.816 33.74H386.776C386.696 33.6067 386.669 33.46 386.696 33.3V33.14H387.336C387.362 33.0867 387.376 33.02 387.376 32.94H384.816C384.816 32.8333 384.842 32.7 384.896 32.54H390.656C390.656 32.5133 390.682 32.4467 390.736 32.34H387.176C387.256 32.0733 387.376 31.8067 387.536 31.54H388.216C388.296 31.4067 388.389 31.2733 388.496 31.14C388.602 31.0067 388.709 30.8733 388.816 30.74H385.816L386.176 30.34H391.976C392.082 30.2333 392.189 30.14 392.296 30.06C392.429 29.9533 392.549 29.8467 392.656 29.74H388.976L389.216 29.54H388.096C388.229 29.4333 388.376 29.34 388.536 29.26C388.696 29.1533 388.856 29.0467 389.016 28.94H390.896C391.456 28.62 392.042 28.3533 392.656 28.14H392.936C393.656 27.8733 394.456 27.6733 395.336 27.54C396.242 27.38 397.229 27.3 398.296 27.3C400.482 27.3 402.336 27.58 403.856 28.14H403.536C403.829 28.2467 404.109 28.3667 404.376 28.5C404.669 28.6333 404.949 28.78 405.216 28.94H403.336L404.176 29.54H405.296L405.536 29.74H409.216L409.816 30.34H404.016C404.069 30.3933 404.122 30.46 404.176 30.54C404.229 30.62 404.282 30.6867 404.336 30.74H407.296C407.402 30.8467 407.496 30.98 407.576 31.14C407.682 31.2733 407.762 31.4067 407.816 31.54H407.176L407.536 32.34H411.096C411.149 32.4467 411.176 32.5133 411.176 32.54H405.416C405.469 32.5933 405.496 32.66 405.496 32.74C405.522 32.82 405.549 32.8867 405.576 32.94H406.896C406.896 32.9667 406.896 32.9933 406.896 33.02C406.922 33.0467 406.936 33.0867 406.936 33.14H407.616L407.856 34.34H405.536C405.536 34.3667 405.536 34.3933 405.536 34.42C405.562 34.4467 405.576 34.4867 405.576 34.54H409.416V34.74H407.416V34.94C407.442 35.0733 407.456 35.2067 407.456 35.34C407.456 35.4733 407.456 35.6067 407.456 35.74H408.496V36.34H406.016V36.94H405.576V37.14H404.496V37.34H402.296V38.14H405.576V38.94H405.496V39.34H404.056V39.54H404.936V39.94H407.576V40.54H407.096V40.94H407.416V41.74H407.176V42.94H405.856V43.74H407.376V44.34H407.576V45.14H407.936V45.34H408.256V45.94H407.016V46.34H406.776ZM395.176 32.9C394.989 32.9 394.856 32.9133 394.776 32.94H395.616C395.536 32.9133 395.389 32.9 395.176 32.9ZM395.456 39.86L395.096 39.94H395.456V39.86ZM394.096 40.94H395.216C394.922 41.1533 394.776 41.42 394.776 41.74H393.576V41.86C393.576 42.1267 393.669 42.3533 393.856 42.54C393.989 42.7267 394.256 42.86 394.656 42.94H395.616C396.016 42.86 396.362 42.7267 396.656 42.54C396.896 42.3267 397.122 42.06 397.336 41.74H397.536C397.589 41.6067 397.642 41.4867 397.696 41.38C397.749 41.2467 397.789 41.1 397.816 40.94H397.496C397.496 40.8867 397.496 40.8467 397.496 40.82C397.522 40.7933 397.536 40.7667 397.536 40.74H397.576V40.54H398.056C398.082 40.4333 398.096 40.34 398.096 40.26C398.096 40.1533 398.096 40.0467 398.096 39.94H397.416L395.456 40.38C395.349 40.4067 395.242 40.4333 395.136 40.46C395.056 40.4867 394.976 40.5133 394.896 40.54C394.816 40.5667 394.736 40.5933 394.656 40.62C394.576 40.6467 394.509 40.6867 394.456 40.74H394.416C394.362 40.7667 394.309 40.7933 394.256 40.82C394.202 40.8467 394.149 40.8867 394.096 40.94ZM394.296 42.94H393.296C393.402 42.9667 393.562 42.98 393.776 42.98C393.856 42.98 393.936 42.98 394.016 42.98C394.122 42.98 394.216 42.9667 394.296 42.94ZM433.018 35.54H435.738C435.738 35.5667 435.725 35.5933 435.698 35.62C435.672 35.6467 435.645 35.6867 435.618 35.74H434.698C434.485 36.0067 434.192 36.14 433.818 36.14H426.018C425.645 36.14 425.352 36.0067 425.138 35.74H426.058L425.938 35.54H423.178L423.058 35.34C423.032 35.2333 422.965 35.1 422.858 34.94H422.178C422.018 34.6467 421.845 34.4467 421.658 34.34H422.658C422.445 34.2067 422.192 34.14 421.898 34.14C421.578 34.14 421.312 34.2067 421.098 34.34H420.258C420.045 34.4467 419.872 34.6467 419.738 34.94H419.378C419.325 35.0467 419.272 35.18 419.218 35.34H421.378C421.352 35.3933 421.338 35.46 421.338 35.54H422.418C422.392 35.5933 422.378 35.66 422.378 35.74H423.698C423.672 35.7933 423.658 35.86 423.658 35.94C423.658 36.02 423.645 36.0867 423.618 36.14H423.778V36.34H422.218V36.74H417.218V36.94H424.898C424.872 37.0733 424.858 37.2067 424.858 37.34C424.858 37.4733 424.858 37.6067 424.858 37.74H417.778V37.94H420.618V38.14H419.858V38.94H417.698C417.698 39.0467 417.698 39.1533 417.698 39.26C417.698 39.34 417.712 39.4333 417.738 39.54V39.94H420.138C420.138 40.1267 420.152 40.26 420.178 40.34H417.978C418.032 40.6867 418.085 40.9533 418.138 41.14H417.698C417.858 41.5133 418.085 41.78 418.378 41.94H419.698C419.912 42.02 420.138 42.06 420.378 42.06C420.672 42.06 420.912 42.02 421.098 41.94H421.658C421.898 41.8067 422.125 41.54 422.338 41.14H421.258L421.378 40.86C421.432 40.7533 421.485 40.66 421.538 40.58C421.618 40.4733 421.685 40.3933 421.738 40.34H424.538C424.778 40.1533 425.045 40.06 425.338 40.06H433.138C433.405 40.06 433.658 40.1533 433.898 40.34H431.098C431.365 40.5533 431.472 40.82 431.418 41.14H432.498C432.472 41.2467 432.445 41.3667 432.418 41.5C432.418 41.6333 432.392 41.78 432.338 41.94H431.738L431.618 42.34H434.178L434.098 42.54H433.258L433.178 42.74H428.738L428.618 42.94H433.458L433.018 43.74H433.418L433.298 43.94H430.298C430.218 44.0733 430.125 44.2067 430.018 44.34C429.938 44.4733 429.845 44.6067 429.738 44.74H429.018C428.992 44.7667 428.965 44.7933 428.938 44.82C428.912 44.8467 428.885 44.8867 428.858 44.94H431.618C431.592 44.9667 431.565 44.9933 431.538 45.02C431.512 45.0467 431.485 45.0867 431.458 45.14H429.458C429.432 45.1667 429.405 45.1933 429.378 45.22C429.352 45.2467 429.312 45.2867 429.258 45.34H430.938L430.538 45.74H430.338L430.138 45.94H430.618L430.138 46.34H430.858C430.725 46.4467 430.578 46.5533 430.418 46.66C430.285 46.74 430.138 46.8333 429.978 46.94H430.778L430.458 47.14H429.578L428.858 47.54H429.098C428.672 47.78 428.192 47.98 427.658 48.14H426.978C426.738 48.22 426.498 48.3 426.258 48.38C426.018 48.4333 425.778 48.4867 425.538 48.54H425.178C424.992 48.5667 424.805 48.5933 424.618 48.62C424.432 48.6733 424.245 48.7133 424.058 48.74H424.858C424.485 48.7933 424.098 48.8333 423.698 48.86C423.298 48.8867 422.885 48.9 422.458 48.9C422.058 48.9 421.672 48.8867 421.298 48.86C420.925 48.8333 420.552 48.7933 420.178 48.74H419.338C419.152 48.7133 418.965 48.6733 418.778 48.62C418.618 48.5933 418.445 48.5667 418.258 48.54H418.618C418.378 48.4867 418.138 48.4333 417.898 48.38C417.658 48.3 417.432 48.22 417.218 48.14H417.898C417.392 47.98 416.925 47.78 416.498 47.54H416.218C416.112 47.4867 415.992 47.4333 415.858 47.38C415.752 47.3 415.645 47.22 415.538 47.14H416.378L416.058 46.94H415.258L414.458 46.34H413.778C413.698 46.2867 413.618 46.22 413.538 46.14C413.458 46.06 413.392 45.9933 413.338 45.94H412.818L412.618 45.74H412.818L412.418 45.34H410.778C410.698 45.26 410.645 45.1933 410.618 45.14H412.618C412.538 45.06 412.485 44.9933 412.458 44.94H409.658C409.632 44.8867 409.578 44.82 409.498 44.74H410.218C410.112 44.6067 410.018 44.4733 409.938 44.34C409.858 44.2067 409.778 44.0733 409.698 43.94H412.698L412.578 43.74H412.178C412.098 43.6067 412.018 43.4733 411.938 43.34C411.885 43.2067 411.832 43.0733 411.778 42.94H406.978L406.898 42.74H411.338L411.258 42.54H412.098L412.018 42.34H409.458L409.338 41.94H408.018C407.992 41.8067 407.965 41.6733 407.938 41.54C407.912 41.4067 407.885 41.2733 407.858 41.14H408.258L408.138 40.34H410.338V39.94H407.938V39.74C407.912 39.6067 407.898 39.4733 407.898 39.34C407.898 39.2067 407.898 39.0733 407.898 38.94H410.058V38.14H410.818V37.94H407.978V37.74H415.058V36.94H407.418V36.74H412.418V36.34H413.978V36.14H413.818C413.845 36.0867 413.858 36.02 413.858 35.94C413.858 35.86 413.858 35.7933 413.858 35.74H412.578V35.54H411.498C411.498 35.46 411.512 35.3933 411.538 35.34H409.378C409.432 35.18 409.458 35.0467 409.458 34.94H409.858L409.978 34.34H410.818L411.058 33.54H411.138C411.165 33.4333 411.205 33.34 411.258 33.26C411.312 33.1533 411.352 33.0467 411.378 32.94H411.178C411.232 32.8067 411.285 32.6733 411.338 32.54C411.418 32.38 411.498 32.2467 411.578 32.14H411.338C411.392 32.0333 411.445 31.94 411.498 31.86C411.578 31.7533 411.658 31.6467 411.738 31.54H411.778C411.885 31.4067 411.992 31.2733 412.098 31.14C412.205 30.98 412.312 30.8467 412.418 30.74H412.458C412.618 30.5267 412.818 30.3267 413.058 30.14H412.858L413.098 29.94H413.018L413.258 29.74H414.738C414.792 29.6867 414.845 29.6467 414.898 29.62C414.952 29.5933 414.992 29.5667 415.018 29.54H414.138C414.192 29.4867 414.245 29.4467 414.298 29.42C414.352 29.3933 414.392 29.3667 414.418 29.34H414.098C414.578 29.02 415.045 28.7533 415.498 28.54H416.298C416.458 28.46 416.618 28.3933 416.778 28.34C416.938 28.26 417.098 28.1933 417.258 28.14H416.338C416.445 28.0867 416.538 28.0467 416.618 28.02C416.725 27.9933 416.832 27.9667 416.938 27.94H416.898C417.032 27.8867 417.152 27.8467 417.258 27.82C417.392 27.7933 417.512 27.7667 417.618 27.74H417.498C418.672 27.4467 419.898 27.3 421.178 27.3C421.898 27.3 422.578 27.34 423.218 27.42C423.858 27.5 424.458 27.6067 425.018 27.74H425.138C425.272 27.7667 425.392 27.7933 425.498 27.82C425.632 27.8467 425.752 27.8867 425.858 27.94H425.898C426.005 27.9667 426.098 27.9933 426.178 28.02C426.285 28.0467 426.392 28.0867 426.498 28.14H427.418C427.818 28.2733 428.152 28.4067 428.418 28.54H427.578C427.845 28.6467 428.098 28.78 428.338 28.94C428.578 29.0733 428.818 29.2067 429.058 29.34H429.378C429.432 29.3667 429.485 29.3933 429.538 29.42C429.592 29.4467 429.632 29.4867 429.658 29.54H430.538C430.592 29.5667 430.632 29.5933 430.658 29.62C430.712 29.6467 430.765 29.6867 430.818 29.74H429.338L429.578 29.94H429.658L429.898 30.14H430.058C430.192 30.2467 430.312 30.3533 430.418 30.46C430.525 30.54 430.632 30.6333 430.738 30.74H430.698C430.832 30.8733 430.952 31.0067 431.058 31.14C431.192 31.2733 431.312 31.4067 431.418 31.54H431.378C431.458 31.6467 431.538 31.7533 431.618 31.86C431.698 31.94 431.765 32.0333 431.818 32.14H432.058C432.165 32.2733 432.258 32.4067 432.338 32.54C432.418 32.6733 432.485 32.8067 432.538 32.94H432.778C432.832 33.0467 432.885 33.1533 432.938 33.26C432.992 33.34 433.032 33.4333 433.058 33.54H433.018C433.072 33.6733 433.125 33.8067 433.178 33.94C433.232 34.0733 433.272 34.2067 433.298 34.34H432.298L432.418 34.94H433.098V35.34L433.018 35.54ZM455.941 37.54V37.94H461.021V38.34H457.941V38.74H456.501V39.14H457.741V39.38C457.741 39.54 457.728 39.66 457.701 39.74H458.261C458.075 40.22 457.728 40.46 457.221 40.46H445.301V40.54H446.901V40.66C446.901 40.7667 446.901 40.8867 446.901 41.02C446.901 41.1267 446.915 41.2333 446.941 41.34H444.781C444.781 41.42 444.781 41.5 444.781 41.58C444.808 41.6333 444.821 41.6867 444.821 41.74H444.581C444.581 41.8467 444.608 41.98 444.661 42.14H444.821C444.955 42.5133 445.168 42.78 445.461 42.94H444.381C444.568 43.0467 444.821 43.1 445.141 43.1C445.355 43.1 445.528 43.0467 445.661 42.94H447.541C447.648 42.8867 447.741 42.8067 447.821 42.7C447.928 42.5933 448.048 42.4867 448.181 42.38L448.421 42.14H447.661C447.901 41.9267 448.261 41.82 448.741 41.82H456.301C456.621 41.82 456.861 41.9267 457.021 42.14H457.741C457.875 42.3267 457.941 42.5133 457.941 42.7C457.915 42.7533 457.901 42.8333 457.901 42.94H456.021C455.968 43.2067 455.888 43.4733 455.781 43.74H453.821C453.741 43.8733 453.675 44.0067 453.621 44.14H458.581C458.528 44.2733 458.448 44.4067 458.341 44.54C458.261 44.6733 458.168 44.8067 458.061 44.94H456.861C456.755 45.1 456.648 45.2333 456.541 45.34H456.821C456.795 45.3667 456.768 45.3933 456.741 45.42C456.715 45.4467 456.688 45.4867 456.661 45.54H454.421L454.221 45.74H454.901C454.875 45.7667 454.835 45.7933 454.781 45.82C454.755 45.8467 454.728 45.8867 454.701 45.94H455.941C455.755 46.1267 455.515 46.3267 455.221 46.54H454.621C454.595 46.5667 454.555 46.5933 454.501 46.62C454.448 46.6467 454.395 46.6867 454.341 46.74H453.901C453.475 47.0333 453.008 47.3 452.501 47.54H451.981C451.661 47.7 451.315 47.8467 450.941 47.98C450.595 48.1133 450.221 48.2333 449.821 48.34H449.181C448.888 48.42 448.581 48.4867 448.261 48.54C447.941 48.62 447.595 48.6867 447.221 48.74H448.901C448.528 48.7933 448.141 48.8333 447.741 48.86C447.341 48.8867 446.915 48.9 446.461 48.9C446.035 48.9 445.608 48.8867 445.181 48.86C444.755 48.8333 444.341 48.7933 443.941 48.74H442.261C441.915 48.6867 441.581 48.62 441.261 48.54C440.941 48.4867 440.621 48.42 440.301 48.34H440.941C440.221 48.1533 439.541 47.8867 438.901 47.54H439.421C438.941 47.2733 438.528 47.0067 438.181 46.74H438.621C438.568 46.6867 438.515 46.6467 438.461 46.62C438.435 46.5933 438.395 46.5667 438.341 46.54H438.941C438.835 46.4333 438.728 46.34 438.621 46.26C438.515 46.1533 438.408 46.0467 438.301 45.94H437.021L436.821 45.74H436.141C436.115 45.6867 436.088 45.6467 436.061 45.62C436.035 45.5933 436.008 45.5667 435.981 45.54H438.181C438.155 45.4867 438.101 45.42 438.021 45.34H437.741C437.688 45.2867 437.635 45.22 437.581 45.14C437.528 45.06 437.475 44.9933 437.421 44.94H438.621C438.541 44.8067 438.461 44.6733 438.381 44.54C438.301 44.4067 438.221 44.2733 438.141 44.14H433.141C433.061 44.0067 432.995 43.8733 432.941 43.74H434.901L434.541 42.94H435.621C435.568 42.8067 435.515 42.6733 435.461 42.54C435.435 42.4067 435.395 42.2733 435.341 42.14H435.221L435.101 41.74H435.381L435.261 41.34H437.421C437.395 41.2067 437.368 41.0733 437.341 40.94C437.315 40.8067 437.288 40.6733 437.261 40.54H435.661L435.581 39.74H435.021C435.021 39.6333 435.008 39.54 434.981 39.46C434.981 39.3533 434.981 39.2467 434.981 39.14H433.741V38.74H435.141V38.34H438.221V37.94H433.141V37.86C433.141 37.7267 433.155 37.62 433.181 37.54H440.101C440.101 37.4333 440.101 37.34 440.101 37.26C440.128 37.1533 440.141 37.0467 440.141 36.94H433.781C433.781 36.8867 433.781 36.8467 433.781 36.82C433.808 36.7933 433.821 36.7667 433.821 36.74H436.461C436.461 36.66 436.475 36.5933 436.501 36.54H439.461V36.34H433.821C433.848 36.2067 433.875 36.0733 433.901 35.94C433.928 35.8067 433.955 35.6733 433.981 35.54H435.501C435.501 35.4333 435.528 35.3 435.581 35.14H434.261C434.261 35.0867 434.261 35.0467 434.261 35.02C434.288 34.9933 434.301 34.9667 434.301 34.94H435.261C435.261 34.8867 435.261 34.8467 435.261 34.82C435.288 34.7933 435.301 34.7667 435.301 34.74H434.301L434.381 34.54H435.341L435.461 34.14H436.221L436.461 33.54H435.741C435.795 33.4067 435.848 33.2733 435.901 33.14C435.955 32.98 436.021 32.8467 436.101 32.74H435.981L436.061 32.54H435.061C435.115 32.4333 435.141 32.3667 435.141 32.34H434.221L434.461 31.94H436.421C436.448 31.8867 436.501 31.82 436.581 31.74H437.301C437.408 31.6067 437.501 31.4733 437.581 31.34C437.688 31.18 437.795 31.0467 437.901 30.94H437.181C437.261 30.8333 437.341 30.74 437.421 30.66C437.528 30.5533 437.635 30.4467 437.741 30.34H439.301L439.701 29.94H437.341C437.688 29.6467 438.035 29.38 438.381 29.14H440.581L440.901 28.94H440.181C440.395 28.8067 440.648 28.6733 440.941 28.54H442.501C443.221 28.1933 443.968 27.9267 444.741 27.74H442.501C443.088 27.6067 443.701 27.5 444.341 27.42C444.981 27.34 445.648 27.3 446.341 27.3C447.035 27.3 447.688 27.34 448.301 27.42C448.915 27.5 449.501 27.6067 450.061 27.74H452.261C452.661 27.8467 453.035 27.9667 453.381 28.1C453.755 28.2333 454.115 28.38 454.461 28.54H452.901C453.035 28.5933 453.155 28.66 453.261 28.74C453.395 28.7933 453.515 28.86 453.621 28.94H454.341C454.395 28.9667 454.448 28.9933 454.501 29.02C454.555 29.0467 454.608 29.0867 454.661 29.14H452.461C452.808 29.38 453.155 29.6467 453.501 29.94H455.901L456.301 30.34H454.741C454.848 30.4467 454.941 30.5533 455.021 30.66C455.128 30.74 455.221 30.8333 455.301 30.94H456.021C456.128 31.0467 456.221 31.18 456.301 31.34C456.408 31.4733 456.515 31.6067 456.621 31.74H455.861C455.888 31.7933 455.941 31.86 456.021 31.94H454.021L454.261 32.34H455.181L455.301 32.54H456.341C456.341 32.5667 456.368 32.6333 456.421 32.74H456.541L456.901 33.54L457.141 34.14H457.181L457.301 34.54H456.821L456.901 34.74H457.261L457.341 34.94H457.981C457.981 34.9667 457.981 34.9933 457.981 35.02C458.008 35.0467 458.021 35.0867 458.021 35.14H457.701L457.821 35.54H456.301L456.421 36.34H462.061V36.54H459.101C459.101 36.5667 459.101 36.5933 459.101 36.62C459.128 36.6467 459.141 36.6867 459.141 36.74H456.461C456.488 36.7933 456.501 36.86 456.501 36.94H462.861C462.861 37.0467 462.861 37.1533 462.861 37.26C462.861 37.34 462.875 37.4333 462.901 37.54H455.941ZM443.781 34.94V35.14H445.061V35.46H448.261V35.14H448.541V34.94H447.901V34.74H447.501C447.501 34.66 447.488 34.5933 447.461 34.54H447.941C447.941 34.4333 447.915 34.3 447.861 34.14H447.821C447.795 33.9 447.715 33.7 447.581 33.54C447.315 33.1133 446.901 32.9 446.341 32.9C445.808 32.9 445.408 33.1133 445.141 33.54H445.861C445.755 33.7 445.675 33.9 445.621 34.14H444.821C444.821 34.1933 444.808 34.26 444.781 34.34C444.781 34.3933 444.768 34.46 444.741 34.54H443.781C443.781 34.62 443.768 34.6867 443.741 34.74H444.741V34.94H443.781Z" fill="#0DCED5"/>
</svg>
